<svg xmlns="http://www.w3.org/2000/svg" xmlns:v="https://svgstorm.com"
viewBox = "0 0 400 277"
width="400"
height="277">
<g fill="None" fill-opacity="0.0" stroke="#000000" stroke-opacity="0.00" stroke-width="0.3"><path d="
M 0.00 277.00 
L 400.00 277.00
L 400.00 0.00
L 0.00 0.00
L 0.00 277.00
M 371.00 72.00 
C 372.68 80.24 380.96 87.32 378.00 97.00
C 372.90 95.68 375.88 87.60 373.22 83.78 C 370.57 79.96 370.45 75.16 367.00 72.00
C 359.67 72.58 354.30 70.07 352.08 61.92 C 349.85 53.77 340.98 55.06 337.08 48.92 C 333.18 42.78 331.91 33.54 337.75 27.75 C 343.60 21.96 350.69 26.77 353.92 33.08 C 357.16 39.38 355.32 47.55 362.75 52.25 C 370.19 56.94 369.46 64.43 371.00 72.00
M 53.00 99.00 
C 55.60 105.43 55.97 113.79 57.33 120.67 C 58.69 127.55 61.48 135.81 61.00 143.00
C 62.55 141.63 64.99 141.04 67.00 141.00
C 72.89 119.39 72.60 92.31 93.00 78.00
C 93.07 85.64 93.78 96.88 90.22 103.22 C 86.67 109.57 86.76 116.70 79.25 120.25 C 71.74 123.80 70.16 131.31 70.00 140.00
C 72.50 138.45 75.40 139.37 78.00 138.00
C 79.15 137.39 80.77 135.77 82.00 135.00
C 89.66 130.19 99.39 129.79 102.30 119.30 C 105.22 108.81 114.80 107.34 121.00 101.00
C 121.45 114.95 115.12 128.62 104.00 137.00
C 107.87 136.52 112.10 137.00 116.00 137.00
C 121.95 137.00 135.82 140.95 141.00 138.00
C 141.65 134.93 144.19 132.51 144.31 129.31 C 144.42 126.10 149.32 124.48 150.00 123.00
C 150.34 122.25 150.12 119.83 150.00 119.00
C 149.44 115.16 144.35 111.81 146.93 107.92 C 149.50 104.04 153.02 101.79 159.00 103.00 C 164.98 104.21 163.17 108.81 163.00 112.00
C 162.73 117.00 165.75 121.50 159.00 123.00
C 158.81 127.60 161.15 131.67 162.00 136.00
C 164.06 133.55 172.01 132.95 175.00 131.00
C 178.05 129.01 180.04 124.75 184.00 125.00
C 182.78 128.38 181.66 130.25 184.00 133.00
C 182.06 133.91 180.32 135.33 178.00 135.00
C 175.82 136.61 174.67 140.56 172.00 142.00
C 174.01 141.82 176.87 143.02 178.00 143.00
C 180.22 142.21 185.24 142.15 187.00 141.00
C 187.12 139.28 189.46 137.95 189.00 136.00
C 191.54 139.18 195.74 135.23 198.23 136.79 C 200.72 138.35 195.38 144.34 194.00 145.00
C 198.78 144.78 203.63 147.15 208.07 146.93 C 212.52 146.71 218.90 150.43 223.00 149.00
C 225.87 145.36 228.23 140.59 231.25 137.25 C 234.28 133.92 234.58 126.26 238.00 124.00
C 236.63 123.30 234.98 122.51 233.00 123.00
C 231.56 119.31 232.07 115.05 232.00 111.00
C 231.62 104.48 235.79 100.31 244.22 103.78 C 252.65 107.25 245.72 114.28 245.00 119.00
C 244.72 120.82 246.28 121.23 245.00 123.00
C 251.47 122.02 257.89 134.67 262.30 138.70 C 266.72 142.73 272.26 154.02 274.00 160.00
C 282.24 161.57 291.38 162.26 299.00 166.00
C 291.33 157.60 293.14 144.72 295.00 135.00
C 295.39 132.96 293.73 128.22 299.00 128.00
C 298.26 125.30 294.86 125.43 294.00 123.00
C 287.74 133.48 278.08 119.00 291.00 120.00
C 289.30 118.78 287.66 117.22 287.00 115.00
C 283.72 115.43 280.53 116.48 277.00 116.00
C 275.51 111.60 279.74 111.33 282.00 110.00
C 279.21 105.02 264.17 106.58 276.00 101.00
C 274.85 94.95 270.74 97.46 266.33 95.67 C 261.92 93.88 269.18 87.36 272.00 91.00
C 274.65 85.67 264.86 75.07 274.00 75.00
C 274.06 79.62 272.45 85.62 279.00 83.00
C 279.09 85.39 278.01 89.16 275.00 89.00
C 274.47 95.04 278.15 94.92 283.00 94.00
C 284.11 97.47 280.99 99.32 279.00 101.00
C 282.28 106.68 281.99 100.15 286.08 100.08 C 290.17 100.01 288.26 108.07 284.00 107.00
C 285.26 108.93 287.00 110.91 289.00 112.00
C 289.32 100.09 302.15 110.54 292.00 115.00
C 292.16 117.64 295.02 119.62 297.00 121.00
C 298.36 109.03 308.18 117.93 301.00 125.00
C 303.41 126.11 304.62 128.96 307.00 130.00
C 303.76 115.84 318.71 124.23 310.00 132.00
C 311.26 133.93 313.00 135.91 315.00 137.00
C 314.19 126.04 328.41 134.37 318.00 139.00
C 319.52 143.59 324.39 146.87 325.00 152.00
C 325.74 153.87 327.69 157.09 328.00 159.00
C 328.00 157.67 328.01 156.33 328.00 155.00
C 327.98 151.37 328.45 148.43 329.00 145.00
C 331.88 126.88 336.07 104.75 351.00 93.00
C 348.69 110.77 349.37 136.63 331.00 145.00
C 332.11 147.50 330.17 151.24 330.00 153.00
C 329.78 155.29 330.00 157.70 330.00 160.00
C 330.00 165.00 330.00 170.00 330.00 175.00
C 330.25 174.75 331.00 175.00 331.00 175.00
C 332.11 165.59 338.74 161.38 343.75 153.75 C 348.76 146.12 345.90 135.03 351.31 127.31 C 356.71 119.58 366.96 116.25 374.25 122.75 C 381.53 129.26 383.02 139.09 380.67 147.67 C 378.32 156.25 374.14 164.42 364.98 165.98 C 355.81 167.53 354.54 179.92 346.00 182.00
C 346.40 182.14 347.68 183.91 348.00 184.00
C 348.45 183.85 349.50 183.98 350.00 184.00
C 357.27 184.23 364.43 191.76 365.98 198.03 C 367.52 204.29 363.68 219.21 356.00 216.00
C 358.54 224.36 349.04 228.99 342.93 230.93 C 336.82 232.86 324.56 232.19 318.93 231.07 C 313.29 229.96 300.72 224.44 304.00 217.00
C 300.39 218.44 294.94 218.57 290.98 218.98 C 287.02 219.38 280.72 221.29 276.93 220.93 C 273.14 220.57 265.02 223.59 262.00 222.00
C 263.10 225.46 264.15 229.19 264.00 233.00
C 263.98 233.50 263.81 234.59 264.00 235.00
C 270.16 247.87 252.00 241.46 244.00 243.00
C 242.92 236.27 253.16 239.32 256.00 235.00
C 256.21 234.62 256.23 233.16 256.00 233.00
C 252.66 230.72 251.37 227.28 250.00 223.00
C 245.00 223.00 240.00 223.00 235.00 223.00
C 234.44 226.69 232.63 229.90 232.00 232.00
C 231.71 232.96 231.86 235.00 232.00 236.00
C 232.23 237.69 233.89 240.62 233.00 243.00
C 225.67 243.00 218.33 243.00 211.00 243.00
C 211.48 236.89 220.76 238.14 225.00 235.00
C 225.38 234.42 224.51 232.46 225.00 232.00
C 222.66 231.66 221.89 226.23 223.00 224.00
C 218.86 226.92 206.02 222.44 201.00 223.00 C 195.98 223.56 182.99 224.91 179.00 222.00
C 179.93 225.18 182.06 231.38 180.00 234.00
C 179.76 234.31 180.00 235.00 180.00 235.00
C 181.51 235.17 196.81 239.09 194.59 241.75 C 192.38 244.40 177.02 242.36 173.00 243.00
C 173.08 240.92 172.31 237.72 175.00 237.00
C 175.01 236.97 173.92 234.96 174.00 235.00
C 171.01 235.34 160.94 237.70 158.78 235.22 C 156.62 232.74 156.39 223.50 156.00 220.00
C 151.53 221.22 147.41 217.84 143.00 219.00
C 139.66 223.59 134.12 227.06 131.00 232.00
C 126.69 229.22 124.24 224.70 121.00 221.00
C 120.74 220.96 118.41 221.89 118.00 222.00
C 117.99 227.53 123.57 232.64 121.00 238.00
C 116.12 233.67 100.33 219.73 113.00 219.00
C 113.19 218.89 115.95 216.10 116.00 216.00
C 116.21 215.61 115.76 214.31 116.00 214.00
C 112.34 209.22 99.97 211.15 94.78 207.22 C 89.58 203.30 78.85 203.95 74.00 199.00
C 73.43 201.28 64.14 208.87 66.00 212.00
C 68.61 211.94 71.07 211.64 73.00 213.00
C 76.47 215.45 76.41 230.01 68.92 231.92 C 61.44 233.84 52.31 234.15 51.00 224.00
C 49.43 241.04 21.25 228.90 37.00 219.00
C 34.44 214.47 28.39 211.98 27.00 207.00
C 29.58 207.99 31.43 210.04 34.00 211.00
C 33.86 207.54 30.54 205.25 30.00 202.00
C 34.28 203.13 37.12 208.16 40.00 211.00
C 41.82 207.65 41.70 203.14 45.00 201.00
C 46.88 203.55 43.15 207.57 44.00 211.00
C 47.83 209.06 49.72 203.78 54.00 203.00
C 51.29 208.32 47.21 213.21 45.00 219.00
C 47.40 218.81 48.93 223.28 50.00 222.00
C 49.22 218.87 48.02 213.34 52.00 212.00
C 53.85 211.38 57.03 212.00 59.00 212.00
C 59.50 212.00 60.00 212.00 60.00 212.00
C 56.02 204.15 58.44 192.79 54.00 185.00
C 52.92 183.10 50.08 181.45 48.25 179.75 C 46.41 178.05 45.48 173.55 44.00 172.00
C 39.21 166.97 31.86 164.64 29.23 156.77 C 26.60 148.90 22.45 140.87 23.00 132.00
C 33.02 136.30 39.05 148.46 45.00 157.00
C 45.39 154.56 55.20 143.34 58.00 145.00
C 55.06 133.00 57.15 118.81 45.75 113.25 C 34.36 107.69 32.75 96.79 29.01 85.99 C 25.26 75.20 28.59 58.04 30.00 47.00
C 39.71 62.91 47.99 79.87 52.00 98.00
C 54.14 90.86 59.90 79.18 57.00 74.00
C 57.15 68.98 62.12 71.92 64.00 74.00
C 67.80 71.15 62.91 69.74 64.01 65.99 C 65.10 62.24 71.03 65.04 69.00 69.00
C 74.82 66.82 70.36 63.34 71.00 59.00
C 75.14 57.72 74.35 62.41 76.00 64.00
C 79.98 60.10 78.04 60.30 76.23 55.77 C 74.42 51.24 83.84 52.30 81.00 58.00
C 85.65 55.88 82.34 52.35 82.00 49.00
C 85.14 47.51 85.64 51.73 88.00 50.00
C 85.04 47.44 85.89 41.58 91.00 45.00
C 91.40 42.53 92.21 40.00 89.00 39.00
C 89.70 35.59 92.78 34.42 93.00 30.00
C 99.24 31.45 92.44 37.77 94.00 42.00
C 101.87 39.34 98.09 48.16 92.00 47.00
C 90.67 50.27 95.62 49.87 95.00 53.00
C 89.21 53.35 85.44 54.43 91.00 59.00
C 88.01 61.58 84.45 57.82 82.00 61.00
C 83.53 63.20 85.87 64.90 85.00 68.00
C 80.69 67.81 77.91 64.81 74.00 68.00
C 82.87 74.39 73.45 74.27 68.00 73.00
C 74.81 76.34 68.96 81.59 64.00 77.00
C 57.40 82.92 55.70 91.61 53.00 99.00
M 317.00 42.00 
C 317.65 43.94 319.09 47.56 317.00 49.00
C 315.71 47.59 314.96 45.14 315.00 43.00
C 314.28 41.14 313.01 39.67 312.00 38.00
C 302.90 38.38 308.40 54.40 301.77 54.77 C 295.13 55.13 293.51 40.05 299.75 36.75 C 305.99 33.46 315.09 32.99 317.00 42.00
M 342.00 71.00 
C 345.97 73.28 352.33 75.37 353.00 80.00
C 349.20 78.32 344.89 75.97 342.00 73.00
C 338.28 79.35 328.81 72.55 321.98 75.98 C 315.14 79.40 309.35 63.97 320.01 65.01 C 330.67 66.05 333.39 66.04 342.00 71.00 Z"/>
</g>
<g fill="None" fill-opacity="0.0" stroke="#F3F3F3" stroke-opacity="0.89" stroke-width="0.3"><path d="
M 367.00 72.00 
C 366.86 72.01 370.97 71.97 371.00 72.00
C 369.46 64.43 370.19 56.94 362.75 52.25 C 355.32 47.55 357.16 39.38 353.92 33.08 C 350.69 26.77 343.60 21.96 337.75 27.75 C 331.91 33.54 333.18 42.78 337.08 48.92 C 340.98 55.06 349.85 53.77 352.08 61.92 C 354.30 70.07 359.67 72.58 367.00 72.00
M 366.00 71.00 
C 360.60 62.75 353.93 55.33 349.00 47.00
C 355.94 53.96 362.46 61.57 366.00 71.00 Z"/>
</g>
<g fill="None" fill-opacity="0.0" stroke="#C8E5E9" stroke-opacity="0.12" stroke-width="0.3"><path d="
M 52.00 98.00 
C 52.11 98.35 52.90 98.74 53.00 99.00
C 55.70 91.61 57.40 82.92 64.00 77.00
C 68.96 81.59 74.81 76.34 68.00 73.00
C 73.45 74.27 82.87 74.39 74.00 68.00
C 77.91 64.81 80.69 67.81 85.00 68.00
C 85.87 64.90 83.53 63.20 82.00 61.00
C 84.45 57.82 88.01 61.58 91.00 59.00
C 85.44 54.43 89.21 53.35 95.00 53.00
C 95.62 49.87 90.67 50.27 92.00 47.00
C 98.09 48.16 101.87 39.34 94.00 42.00
C 92.44 37.77 99.24 31.45 93.00 30.00
C 92.78 34.42 89.70 35.59 89.00 39.00
C 92.21 40.00 91.40 42.53 91.00 45.00
C 85.89 41.58 85.04 47.44 88.00 50.00
C 85.64 51.73 85.14 47.51 82.00 49.00
C 82.34 52.35 85.65 55.88 81.00 58.00
C 83.84 52.30 74.42 51.24 76.23 55.77 C 78.04 60.30 79.98 60.10 76.00 64.00
C 74.35 62.41 75.14 57.72 71.00 59.00
C 70.36 63.34 74.82 66.82 69.00 69.00
C 71.03 65.04 65.10 62.24 64.01 65.99 C 62.91 69.74 67.80 71.15 64.00 74.00
C 62.12 71.92 57.15 68.98 57.00 74.00
C 59.90 79.18 54.14 90.86 52.00 98.00 Z"/>
</g>
<g fill="None" fill-opacity="0.0" stroke="#F4F4F4" stroke-opacity="0.75" stroke-width="0.3"><path d="
M 315.00 43.00 
C 315.13 42.68 316.96 42.15 317.00 42.00
C 315.09 32.99 305.99 33.46 299.75 36.75 C 293.51 40.05 295.13 55.13 301.77 54.77 C 308.40 54.40 302.90 38.38 312.00 38.00
C 313.01 39.67 314.28 41.14 315.00 43.00 Z"/>
</g>
<g fill="None" fill-opacity="0.0" stroke="#F5F5F5" stroke-opacity="0.38" stroke-width="0.3"><path d="
M 315.00 43.00 
C 314.96 45.14 315.71 47.59 317.00 49.00
C 319.09 47.56 317.65 43.94 317.00 42.00
C 316.96 42.15 315.13 42.68 315.00 43.00 Z"/>
</g>
<g fill="None" fill-opacity="0.0" stroke="#8CC6CC" stroke-opacity="0.44" stroke-width="0.3"><path d="
M 58.00 145.00 
C 58.65 143.97 60.22 144.49 61.00 144.00
C 60.84 143.56 61.00 143.00 61.00 143.00
C 61.48 135.81 58.69 127.55 57.33 120.67 C 55.97 113.79 55.60 105.43 53.00 99.00
C 52.90 98.74 52.11 98.35 52.00 98.00
C 47.99 79.87 39.71 62.91 30.00 47.00
C 28.59 58.04 25.26 75.20 29.01 85.99 C 32.75 96.79 34.36 107.69 45.75 113.25 C 57.15 118.81 55.06 133.00 58.00 145.00 Z"/>
</g>
<g fill="None" fill-opacity="0.0" stroke="#F4F4F4" stroke-opacity="0.34" stroke-width="0.3"><path d="
M 366.00 71.00 
C 362.46 61.57 355.94 53.96 349.00 47.00
C 353.93 55.33 360.60 62.75 366.00 71.00 Z"/>
</g>
<g fill="None" fill-opacity="0.0" stroke="#F3F3F3" stroke-opacity="0.77" stroke-width="0.3"><path d="
M 342.00 73.00 
C 341.85 72.55 342.23 71.35 342.00 71.00
C 333.39 66.04 330.67 66.05 320.01 65.01 C 309.35 63.97 315.14 79.40 321.98 75.98 C 328.81 72.55 338.28 79.35 342.00 73.00
M 331.00 68.00 
C 329.23 70.03 325.52 68.53 323.00 69.00
C 324.77 66.97 328.48 68.47 331.00 68.00 Z"/>
</g>
<g fill="None" fill-opacity="0.0" stroke="#F3F3F3" stroke-opacity="0.40" stroke-width="0.3"><path d="
M 331.00 68.00 
C 328.48 68.47 324.77 66.97 323.00 69.00
C 325.52 68.53 329.23 70.03 331.00 68.00 Z"/>
</g>
<g fill="None" fill-opacity="0.0" stroke="#F4F4F4" stroke-opacity="0.45" stroke-width="0.3"><path d="
M 342.00 73.00 
C 344.89 75.97 349.20 78.32 353.00 80.00
C 352.33 75.37 345.97 73.28 342.00 71.00
C 342.23 71.35 341.85 72.55 342.00 73.00 Z"/>
</g>
<g fill="None" fill-opacity="0.0" stroke="#F4F4F4" stroke-opacity="0.51" stroke-width="0.3"><path d="
M 367.00 72.00 
C 370.45 75.16 370.57 79.96 373.22 83.78 C 375.88 87.60 372.90 95.68 378.00 97.00
C 380.96 87.32 372.68 80.24 371.00 72.00
C 370.97 71.97 366.86 72.01 367.00 72.00 Z"/>
</g>
<g fill="None" fill-opacity="0.0" stroke="#F3F3F3" stroke-opacity="0.66" stroke-width="0.3"><path d="
M 295.00 135.00 
C 298.84 131.41 305.20 132.06 309.00 135.00
C 310.92 136.49 311.07 136.92 312.00 139.00
C 312.12 139.26 312.73 139.80 313.00 140.00
C 317.37 143.28 320.82 149.07 323.00 154.00
C 323.25 153.26 324.75 153.17 325.00 152.00
C 324.39 146.87 319.52 143.59 318.00 139.00
C 328.41 134.37 314.19 126.04 315.00 137.00
C 313.00 135.91 311.26 133.93 310.00 132.00
C 318.71 124.23 303.76 115.84 307.00 130.00
C 304.62 128.96 303.41 126.11 301.00 125.00
C 308.18 117.93 298.36 109.03 297.00 121.00
C 295.02 119.62 292.16 117.64 292.00 115.00
C 302.15 110.54 289.32 100.09 289.00 112.00
C 287.00 110.91 285.26 108.93 284.00 107.00
C 288.26 108.07 290.17 100.01 286.08 100.08 C 281.99 100.15 282.28 106.68 279.00 101.00
C 280.99 99.32 284.11 97.47 283.00 94.00
C 278.15 94.92 274.47 95.04 275.00 89.00
C 278.01 89.16 279.09 85.39 279.00 83.00
C 272.45 85.62 274.06 79.62 274.00 75.00
C 264.86 75.07 274.65 85.67 272.00 91.00
C 269.18 87.36 261.92 93.88 266.33 95.67 C 270.74 97.46 274.85 94.95 276.00 101.00
C 264.17 106.58 279.21 105.02 282.00 110.00
C 279.74 111.33 275.51 111.60 277.00 116.00
C 280.53 116.48 283.72 115.43 287.00 115.00
C 287.66 117.22 289.30 118.78 291.00 120.00
C 278.08 119.00 287.74 133.48 294.00 123.00
C 294.86 125.43 298.26 125.30 299.00 128.00
C 293.73 128.22 295.39 132.96 295.00 135.00 Z"/>
</g>
<g fill="None" fill-opacity="0.0" stroke="#5A939D" stroke-opacity="0.42" stroke-width="0.3"><path d="
M 67.00 141.00 
C 67.50 140.99 68.00 141.00 68.00 141.00
C 68.50 141.00 69.00 141.00 69.00 141.00
C 69.26 140.88 69.68 140.20 70.00 140.00
C 70.16 131.31 71.74 123.80 79.25 120.25 C 86.76 116.70 86.67 109.57 90.22 103.22 C 93.78 96.88 93.07 85.64 93.00 78.00
C 72.60 92.31 72.89 119.39 67.00 141.00 Z"/>
</g>
<g fill="None" fill-opacity="0.0" stroke="#8CC6CE" stroke-opacity="0.60" stroke-width="0.3"><path d="
M 329.00 145.00 
C 329.17 144.76 330.51 145.06 331.00 145.00
C 349.37 136.63 348.69 110.77 351.00 93.00
C 336.07 104.75 331.88 126.88 329.00 145.00 Z"/>
</g>
<g fill="None" fill-opacity="0.0" stroke="#8CC5CC" stroke-opacity="0.44" stroke-width="0.3"><path d="
M 82.00 135.00 
C 81.24 135.85 80.52 137.03 80.00 138.00
C 86.16 138.66 93.66 136.68 99.00 139.00
C 100.16 138.60 100.71 138.20 102.00 138.00
C 102.82 137.60 102.74 137.16 104.00 137.00
C 115.12 128.62 121.45 114.95 121.00 101.00
C 114.80 107.34 105.22 108.81 102.30 119.30 C 99.39 129.79 89.66 130.19 82.00 135.00 Z"/>
</g>
<g fill="None" fill-opacity="0.0" stroke="#4D332E" stroke-opacity="0.85" stroke-width="0.3"><path d="
M 150.00 119.00 
C 150.27 118.08 153.28 114.58 153.00 112.00
C 156.81 116.10 158.81 108.14 163.00 112.00
C 163.17 108.81 164.98 104.21 159.00 103.00 C 153.02 101.79 149.50 104.04 146.93 107.92 C 144.35 111.81 149.44 115.16 150.00 119.00 Z"/>
</g>
<g fill="None" fill-opacity="0.0" stroke="#2E1C19" stroke-opacity="0.86" stroke-width="0.3"><path d="
M 232.00 111.00 
C 233.95 112.81 240.98 113.39 243.00 112.00
C 243.61 114.22 241.38 119.04 245.00 119.00
C 245.72 114.28 252.65 107.25 244.22 103.78 C 235.79 100.31 231.62 104.48 232.00 111.00 Z"/>
</g>
<g fill="None" fill-opacity="0.0" stroke="#AD8765" stroke-opacity="0.88" stroke-width="0.3"><path d="
M 150.00 119.00 
C 150.12 119.83 150.34 122.25 150.00 123.00
C 152.83 122.29 156.15 123.63 159.00 123.00
C 165.75 121.50 162.73 117.00 163.00 112.00
C 158.81 108.14 156.81 116.10 153.00 112.00
C 153.28 114.58 150.27 118.08 150.00 119.00 Z"/>
</g>
<g fill="None" fill-opacity="0.0" stroke="#56331F" stroke-opacity="0.89" stroke-width="0.3"><path d="
M 238.00 124.00 
C 238.27 124.14 238.68 125.03 239.00 125.00
C 238.74 125.02 242.70 124.83 242.00 125.00
C 241.76 125.06 245.21 122.71 245.00 123.00
C 246.28 121.23 244.72 120.82 245.00 119.00
C 241.38 119.04 243.61 114.22 243.00 112.00
C 240.98 113.39 233.95 112.81 232.00 111.00
C 232.07 115.05 231.56 119.31 233.00 123.00
C 234.98 122.51 236.63 123.30 238.00 124.00 Z"/>
</g>
<g fill="None" fill-opacity="0.0" stroke="#8AC6CD" stroke-opacity="0.66" stroke-width="0.3"><path d="
M 331.00 175.00 
C 331.55 175.67 332.73 177.42 333.00 178.00
C 332.92 177.95 336.09 178.40 337.00 179.00
C 338.09 179.72 338.03 180.68 338.00 182.00
C 340.67 182.00 343.33 182.00 346.00 182.00
C 354.54 179.92 355.81 167.53 364.98 165.98 C 374.14 164.42 378.32 156.25 380.67 147.67 C 383.02 139.09 381.53 129.26 374.25 122.75 C 366.96 116.25 356.71 119.58 351.31 127.31 C 345.90 135.03 348.76 146.12 343.75 153.75 C 338.74 161.38 332.11 165.59 331.00 175.00
M 348.00 165.00 
C 345.68 170.01 342.09 175.21 338.00 179.00
C 340.20 173.93 343.78 168.71 348.00 165.00 Z"/>
</g>
<g fill="None" fill-opacity="0.0" stroke="#FEA437" stroke-opacity="0.98" stroke-width="0.3"><path d="
M 141.00 138.00 
C 139.79 143.74 140.45 150.47 137.69 155.69 C 134.94 160.92 133.87 170.46 140.00 172.00
C 144.23 173.06 149.59 172.92 154.00 173.00
C 156.33 173.04 158.67 173.00 161.00 173.00
C 161.50 173.00 162.00 173.00 162.00 173.00
C 163.42 172.52 164.31 171.15 165.00 170.00
C 166.76 167.04 167.19 163.51 167.00 160.00
C 174.81 157.85 193.12 158.00 189.00 146.00
C 188.37 144.17 186.82 143.58 187.00 141.00
C 185.24 142.15 180.22 142.21 178.00 143.00
C 174.36 144.29 167.71 146.87 164.00 144.00
C 161.69 142.21 162.30 137.56 162.00 136.00
C 161.15 131.67 158.81 127.60 159.00 123.00
C 156.15 123.63 152.83 122.29 150.00 123.00
C 149.32 124.48 144.42 126.10 144.31 129.31 C 144.19 132.51 141.65 134.93 141.00 138.00 Z"/>
</g>
<g fill="None" fill-opacity="0.0" stroke="#FCA336" stroke-opacity="0.97" stroke-width="0.3"><path d="
M 242.00 125.00 
C 239.80 130.14 241.95 138.35 241.00 144.00 C 240.05 149.65 239.50 156.31 239.00 162.00
C 238.41 168.66 238.11 174.59 237.00 181.00
C 236.01 186.74 235.49 192.66 233.00 198.00
C 235.33 198.00 237.67 198.00 240.00 198.00
C 245.66 198.11 251.34 198.00 257.00 198.00
C 261.00 198.00 265.00 198.00 269.00 198.00
C 268.32 183.40 263.05 169.98 260.00 156.00
C 267.53 158.12 265.43 169.62 272.00 172.00
C 272.72 172.02 274.45 170.59 276.00 171.00
C 275.07 168.69 274.93 163.18 274.00 160.00
C 272.26 154.02 266.72 142.73 262.30 138.70 C 257.89 134.67 251.47 122.02 245.00 123.00
C 245.21 122.71 241.76 125.06 242.00 125.00 Z"/>
</g>
<g fill="None" fill-opacity="0.0" stroke="#E47721" stroke-opacity="0.92" stroke-width="0.3"><path d="
M 223.00 149.00 
C 219.98 152.82 216.04 157.78 213.00 161.00
C 213.00 160.99 214.82 163.85 215.00 164.00
C 218.20 162.66 225.28 161.54 229.00 158.00
C 229.50 153.23 234.63 148.55 234.98 142.98 C 235.32 137.41 239.63 130.95 239.00 125.00
C 238.68 125.03 238.27 124.14 238.00 124.00
C 234.58 126.26 234.28 133.92 231.25 137.25 C 228.23 140.59 225.87 145.36 223.00 149.00 Z"/>
</g>
<g fill="None" fill-opacity="0.0" stroke="#171E32" stroke-opacity="1.00" stroke-width="0.3"><path d="
M 239.00 125.00 
C 239.63 130.95 235.32 137.41 234.98 142.98 C 234.63 148.55 229.50 153.23 229.00 158.00
C 228.79 160.00 229.93 161.09 230.00 163.00
C 230.71 162.14 232.02 162.15 233.00 162.00
C 234.50 161.77 237.73 162.77 239.00 162.00
C 239.50 156.31 240.05 149.65 241.00 144.00 C 241.95 138.35 239.80 130.14 242.00 125.00
C 242.70 124.83 238.74 125.02 239.00 125.00 Z"/>
</g>
<g fill="None" fill-opacity="0.0" stroke="#9C7659" stroke-opacity="0.67" stroke-width="0.3"><path d="
M 175.00 131.00 
C 173.57 134.11 175.55 135.13 178.00 135.00
C 180.32 135.33 182.06 133.91 184.00 133.00
C 181.66 130.25 182.78 128.38 184.00 125.00
C 180.04 124.75 178.05 129.01 175.00 131.00 Z"/>
</g>
<g fill="None" fill-opacity="0.0" stroke="#EA7C1D" stroke-opacity="0.85" stroke-width="0.3"><path d="
M 162.00 136.00 
C 162.30 137.56 161.69 142.21 164.00 144.00
C 165.94 144.85 169.86 142.19 172.00 142.00
C 174.67 140.56 175.82 136.61 178.00 135.00
C 175.55 135.13 173.57 134.11 175.00 131.00
C 172.01 132.95 164.06 133.55 162.00 136.00 Z"/>
</g>
<g fill="None" fill-opacity="0.0" stroke="#5B949D" stroke-opacity="0.44" stroke-width="0.3"><path d="
M 44.00 172.00 
C 41.05 168.87 43.20 161.66 45.00 159.00
C 44.80 158.60 45.20 157.40 45.00 157.00
C 39.05 148.46 33.02 136.30 23.00 132.00
C 22.45 140.87 26.60 148.90 29.23 156.77 C 31.86 164.64 39.21 166.97 44.00 172.00 Z"/>
</g>
<g fill="None" fill-opacity="0.0" stroke="#56929E" stroke-opacity="0.65" stroke-width="0.3"><path d="
M 295.00 135.00 
C 293.14 144.72 291.33 157.60 299.00 166.00
C 299.74 166.36 300.20 166.77 301.00 167.00
C 304.63 168.05 308.38 168.74 312.00 170.00
C 309.58 167.58 308.34 161.09 307.00 158.00
C 309.92 161.97 312.48 166.60 315.00 171.00
C 316.49 171.43 318.87 172.76 320.00 173.00
C 320.06 172.76 320.92 172.35 321.00 172.00
C 322.31 165.81 317.41 162.65 315.68 157.32 C 313.95 151.99 313.37 145.86 313.00 140.00
C 312.73 139.80 312.12 139.26 312.00 139.00
C 309.35 140.23 304.91 143.22 303.00 139.00
C 304.78 137.24 307.54 136.83 309.00 135.00
C 305.20 132.06 298.84 131.41 295.00 135.00 Z"/>
</g>
<g fill="None" fill-opacity="0.0" stroke="#B1D6D9" stroke-opacity="0.73" stroke-width="0.3"><path d="
M 78.00 138.00 
C 73.58 146.86 80.00 160.12 76.69 168.69 C 73.38 177.27 68.24 184.85 67.00 194.00
C 67.43 194.29 68.03 195.55 69.00 195.00
C 68.10 195.52 70.26 192.53 70.00 193.00
C 75.07 183.92 76.04 172.35 81.32 163.32 C 86.61 154.29 88.38 142.69 99.00 139.00
C 93.66 136.68 86.16 138.66 80.00 138.00
C 80.52 137.03 81.24 135.85 82.00 135.00
C 80.77 135.77 79.15 137.39 78.00 138.00 Z"/>
</g>
<g fill="None" fill-opacity="0.0" stroke="#87AFB7" stroke-opacity="0.96" stroke-width="0.3"><path d="
M 312.00 139.00 
C 311.07 136.92 310.92 136.49 309.00 135.00
C 307.54 136.83 304.78 137.24 303.00 139.00
C 304.91 143.22 309.35 140.23 312.00 139.00 Z"/>
</g>
<g fill="None" fill-opacity="0.0" stroke="#9B795C" stroke-opacity="0.74" stroke-width="0.3"><path d="
M 187.00 141.00 
C 186.82 143.58 188.37 144.17 189.00 146.00
C 189.99 144.63 192.58 145.06 194.00 145.00
C 195.38 144.34 200.72 138.35 198.23 136.79 C 195.74 135.23 191.54 139.18 189.00 136.00
C 189.46 137.95 187.12 139.28 187.00 141.00 Z"/>
</g>
<g fill="None" fill-opacity="0.0" stroke="#F3F3F4" stroke-opacity="0.22" stroke-width="0.3"><path d="
M 102.00 138.00 
C 106.31 137.34 112.28 137.36 116.00 137.00
C 112.10 137.00 107.87 136.52 104.00 137.00
C 102.74 137.16 102.82 137.60 102.00 138.00 Z"/>
</g>
<g fill="None" fill-opacity="0.0" stroke="#F1F1F1" stroke-opacity="0.50" stroke-width="0.3"><path d="
M 102.00 138.00 
C 100.71 138.20 100.16 138.60 99.00 139.00
C 88.38 142.69 86.61 154.29 81.32 163.32 C 76.04 172.35 75.07 183.92 70.00 193.00
C 72.29 193.05 75.42 186.80 78.75 182.75 C 82.08 178.71 84.19 171.46 89.25 169.25 C 94.31 167.04 94.43 154.21 100.22 158.78 C 106.02 163.35 93.64 164.68 91.75 168.75 C 89.87 172.83 83.59 177.61 82.25 182.25 C 80.91 186.88 73.59 192.66 73.00 197.00
C 73.50 197.44 73.60 198.59 74.00 199.00
C 78.85 203.95 89.58 203.30 94.78 207.22 C 99.97 211.15 112.34 209.22 116.00 214.00
C 126.16 200.88 145.62 192.02 140.00 172.00
C 133.87 170.46 134.94 160.92 137.69 155.69 C 140.45 150.47 139.79 143.74 141.00 138.00
C 135.82 140.95 121.95 137.00 116.00 137.00
C 112.28 137.36 106.31 137.34 102.00 138.00 Z"/>
</g>
<g fill="None" fill-opacity="0.0" stroke="#F0F0F0" stroke-opacity="0.50" stroke-width="0.3"><path d="
M 70.00 140.00 
C 69.68 140.20 69.26 140.88 69.00 141.00
C 66.76 156.54 63.52 176.39 65.00 192.00
C 65.05 192.50 65.00 193.00 65.00 193.00
C 65.03 193.35 65.65 193.97 66.00 194.00
C 66.50 194.05 67.00 194.00 67.00 194.00
C 68.24 184.85 73.38 177.27 76.69 168.69 C 80.00 160.12 73.58 146.86 78.00 138.00
C 75.40 139.37 72.50 138.45 70.00 140.00 Z"/>
</g>
<g fill="None" fill-opacity="0.0" stroke="#000000" stroke-opacity="0.00" stroke-width="0.3"><path d="
M 321.00 172.00 
C 322.45 172.09 325.59 173.41 327.00 174.00
C 326.88 173.53 327.09 172.48 327.00 172.00
C 325.88 166.29 325.62 159.93 323.00 154.00
C 320.82 149.07 317.37 143.28 313.00 140.00
C 313.37 145.86 313.95 151.99 315.68 157.32 C 317.41 162.65 322.31 165.81 321.00 172.00 Z"/>
</g>
<g fill="None" fill-opacity="0.0" stroke="#EFF0F1" stroke-opacity="0.49" stroke-width="0.3"><path d="
M 61.00 143.00 
C 61.00 143.00 60.84 143.56 61.00 144.00
C 64.37 153.50 62.71 164.90 64.00 175.00
C 66.31 164.32 65.86 152.08 68.00 141.00
C 68.00 141.00 67.50 140.99 67.00 141.00
C 64.99 141.04 62.55 141.63 61.00 143.00 Z"/>
</g>
<g fill="None" fill-opacity="0.0" stroke="#B0D1D5" stroke-opacity="0.71" stroke-width="0.3"><path d="
M 61.00 144.00 
C 60.22 144.49 58.65 143.97 58.00 145.00
C 60.85 146.69 58.92 155.20 59.99 159.01 C 61.07 162.82 59.85 170.53 61.00 175.00 C 62.15 179.47 59.53 186.68 62.00 191.00
C 62.22 191.38 62.00 192.00 62.00 192.00
C 62.47 192.50 64.53 191.50 65.00 192.00
C 63.52 176.39 66.76 156.54 69.00 141.00
C 69.00 141.00 68.50 141.00 68.00 141.00
C 65.86 152.08 66.31 164.32 64.00 175.00
C 62.71 164.90 64.37 153.50 61.00 144.00 Z"/>
</g>
<g fill="None" fill-opacity="0.0" stroke="#F3ECE7" stroke-opacity="0.46" stroke-width="0.3"><path d="
M 164.00 144.00 
C 167.71 146.87 174.36 144.29 178.00 143.00
C 176.87 143.02 174.01 141.82 172.00 142.00
C 169.86 142.19 165.94 144.85 164.00 144.00 Z"/>
</g>
<g fill="None" fill-opacity="0.0" stroke="#F0F0F0" stroke-opacity="0.49" stroke-width="0.3"><path d="
M 45.00 157.00 
C 45.20 157.40 44.80 158.60 45.00 159.00
C 49.37 167.92 52.56 178.14 57.00 187.00
C 57.74 187.74 58.27 189.38 59.00 190.00
C 59.49 190.42 60.37 190.89 61.00 191.00
C 61.48 191.09 62.00 191.00 62.00 191.00
C 59.53 186.68 62.15 179.47 61.00 175.00 C 59.85 170.53 61.07 162.82 59.99 159.01 C 58.92 155.20 60.85 146.69 58.00 145.00
C 55.20 143.34 45.39 154.56 45.00 157.00 Z"/>
</g>
<g fill="None" fill-opacity="0.0" stroke="#F0F0F0" stroke-opacity="0.50" stroke-width="0.3"><path d="
M 189.00 146.00 
C 193.12 158.00 174.81 157.85 167.00 160.00
C 167.19 163.51 166.76 167.04 165.00 170.00
C 165.28 177.93 171.28 187.40 171.98 196.02 C 172.67 204.65 176.70 214.09 179.00 222.00
C 182.99 224.91 195.98 223.56 201.00 223.00 C 206.02 222.44 218.86 226.92 223.00 224.00
C 222.67 221.73 224.00 216.82 224.00 214.00
C 224.00 210.58 224.74 206.69 225.00 204.00
C 225.00 196.88 225.65 188.82 226.00 182.00 C 226.35 175.18 230.23 169.64 230.00 163.00
C 229.93 161.09 228.79 160.00 229.00 158.00
C 225.28 161.54 218.20 162.66 215.00 164.00
C 212.26 165.14 210.73 167.58 209.00 170.00
C 208.55 166.54 204.99 167.71 203.00 166.00
C 206.27 164.06 210.09 163.61 213.00 161.00
C 216.04 157.78 219.98 152.82 223.00 149.00
C 218.90 150.43 212.52 146.71 208.07 146.93 C 203.63 147.15 198.78 144.78 194.00 145.00
C 192.58 145.06 189.99 144.63 189.00 146.00 Z"/>
</g>
<g fill="None" fill-opacity="0.0" stroke="#8BC1CE" stroke-opacity="0.31" stroke-width="0.3"><path d="
M 328.00 155.00 
C 328.18 154.41 329.69 153.51 330.00 153.00
C 330.17 151.24 332.11 147.50 331.00 145.00
C 330.51 145.06 329.17 144.76 329.00 145.00
C 328.45 148.43 327.98 151.37 328.00 155.00 Z"/>
</g>
<g fill="None" fill-opacity="0.0" stroke="#F1F5F5" stroke-opacity="0.36" stroke-width="0.3"><path d="
M 323.00 154.00 
C 325.62 159.93 325.88 166.29 327.00 172.00
C 328.55 168.36 328.00 163.34 328.00 159.00
C 327.69 157.09 325.74 153.87 325.00 152.00
C 324.75 153.17 323.25 153.26 323.00 154.00 Z"/>
</g>
<g fill="None" fill-opacity="0.0" stroke="#8BC5CD" stroke-opacity="0.49" stroke-width="0.3"><path d="
M 328.00 155.00 
C 328.01 156.33 328.00 157.67 328.00 159.00
C 328.00 163.34 328.55 168.36 327.00 172.00
C 327.09 172.48 326.88 173.53 327.00 174.00
C 327.09 174.35 327.65 174.97 328.00 175.00
C 328.50 175.05 329.00 175.00 329.00 175.00
C 329.00 169.94 329.59 164.31 330.00 160.00
C 330.00 157.70 329.78 155.29 330.00 153.00
C 329.69 153.51 328.18 154.41 328.00 155.00 Z"/>
</g>
<g fill="None" fill-opacity="0.0" stroke="#F0F0F0" stroke-opacity="0.50" stroke-width="0.3"><path d="
M 257.00 198.00 
C 259.25 199.63 258.20 206.92 258.99 210.01 C 259.78 213.10 261.06 219.04 262.00 222.00
C 265.02 223.59 273.14 220.57 276.93 220.93 C 280.72 221.29 287.02 219.38 290.98 218.98 C 294.94 218.57 300.39 218.44 304.00 217.00
C 304.87 216.65 306.36 215.59 307.00 215.00
C 313.26 209.26 320.00 205.80 329.00 206.00
C 328.89 201.60 329.52 197.06 328.00 193.00
C 325.81 185.16 319.51 179.22 316.00 172.00
C 316.34 180.57 302.07 173.31 301.00 167.00
C 300.20 166.77 299.74 166.36 299.00 166.00
C 291.38 162.26 282.24 161.57 274.00 160.00
C 274.93 163.18 275.07 168.69 276.00 171.00
C 277.71 175.26 283.13 175.08 285.00 179.00
C 280.51 181.94 275.54 175.34 272.00 181.00
C 272.48 177.87 273.50 175.07 272.00 172.00
C 265.43 169.62 267.53 158.12 260.00 156.00
C 263.05 169.98 268.32 183.40 269.00 198.00
C 265.00 198.00 261.00 198.00 257.00 198.00 Z"/>
</g>
<g fill="None" fill-opacity="0.0" stroke="#D5E5E8" stroke-opacity="0.72" stroke-width="0.3"><path d="
M 70.00 193.00 
C 70.26 192.53 68.10 195.52 69.00 195.00
C 69.27 196.28 72.42 196.49 73.00 197.00
C 73.59 192.66 80.91 186.88 82.25 182.25 C 83.59 177.61 89.87 172.83 91.75 168.75 C 93.64 164.68 106.02 163.35 100.22 158.78 C 94.43 154.21 94.31 167.04 89.25 169.25 C 84.19 171.46 82.08 178.71 78.75 182.75 C 75.42 186.80 72.29 193.05 70.00 193.00 Z"/>
</g>
<g fill="None" fill-opacity="0.0" stroke="#5D9AA3" stroke-opacity="0.27" stroke-width="0.3"><path d="
M 312.00 170.00 
C 313.07 170.37 313.90 170.68 315.00 171.00
C 312.48 166.60 309.92 161.97 307.00 158.00
C 308.34 161.09 309.58 167.58 312.00 170.00 Z"/>
</g>
<g fill="None" fill-opacity="0.0" stroke="#8FB5BC" stroke-opacity="0.73" stroke-width="0.3"><path d="
M 44.00 172.00 
C 45.08 173.14 48.52 172.78 50.00 173.00
C 51.12 177.05 53.23 180.80 54.00 185.00
C 54.61 185.83 56.32 186.32 57.00 187.00
C 52.56 178.14 49.37 167.92 45.00 159.00
C 43.20 161.66 41.05 168.87 44.00 172.00 Z"/>
</g>
<g fill="None" fill-opacity="0.0" stroke="#8CC7CC" stroke-opacity="0.30" stroke-width="0.3"><path d="
M 329.00 175.00 
C 329.00 175.50 329.00 176.00 329.00 176.00
C 329.25 176.25 330.00 176.00 330.00 176.00
C 330.00 175.50 330.00 175.00 330.00 175.00
C 330.00 170.00 330.00 165.00 330.00 160.00
C 329.59 164.31 329.00 169.94 329.00 175.00 Z"/>
</g>
<g fill="None" fill-opacity="0.0" stroke="#5D3721" stroke-opacity="0.98" stroke-width="0.3"><path d="
M 215.00 164.00 
C 214.82 163.85 213.00 160.99 213.00 161.00
C 210.09 163.61 206.27 164.06 203.00 166.00
C 204.99 167.71 208.55 166.54 209.00 170.00
C 210.73 167.58 212.26 165.14 215.00 164.00 Z"/>
</g>
<g fill="None" fill-opacity="0.0" stroke="#2A0C53" stroke-opacity="0.98" stroke-width="0.3"><path d="
M 230.00 163.00 
C 230.23 169.64 226.35 175.18 226.00 182.00 C 225.65 188.82 225.00 196.88 225.00 204.00
C 225.00 207.43 224.26 211.31 224.00 214.00
C 224.00 216.82 222.67 221.73 223.00 224.00
C 222.80 222.64 226.00 224.06 224.99 226.01 C 223.98 227.97 225.21 230.45 226.00 232.00
C 227.68 232.00 230.42 232.54 232.00 232.00
C 232.63 229.90 234.44 226.69 235.00 223.00
C 236.17 215.34 239.80 207.84 240.00 200.00
C 240.01 199.50 240.14 198.05 240.00 198.00
C 237.67 198.00 235.33 198.00 233.00 198.00
C 235.49 192.66 236.01 186.74 237.00 181.00
C 236.51 175.17 231.43 168.79 233.00 162.00
C 232.02 162.15 230.71 162.14 230.00 163.00 Z"/>
</g>
<g fill="None" fill-opacity="0.0" stroke="#322B7F" stroke-opacity="1.00" stroke-width="0.3"><path d="
M 237.00 181.00 
C 238.11 174.59 238.41 168.66 239.00 162.00
C 237.73 162.77 234.50 161.77 233.00 162.00
C 231.43 168.79 236.51 175.17 237.00 181.00 Z"/>
</g>
<g fill="None" fill-opacity="0.0" stroke="#8FC9D1" stroke-opacity="0.23" stroke-width="0.3"><path d="
M 348.00 165.00 
C 343.78 168.71 340.20 173.93 338.00 179.00
C 342.09 175.21 345.68 170.01 348.00 165.00 Z"/>
</g>
<g fill="None" fill-opacity="0.0" stroke="#79A7B0" stroke-opacity="0.82" stroke-width="0.3"><path d="
M 328.00 193.00 
C 327.93 191.73 328.13 188.96 328.00 187.00
C 326.44 182.80 318.62 178.18 320.00 173.00
C 318.87 172.76 316.49 171.43 315.00 171.00
C 313.90 170.68 313.07 170.37 312.00 170.00
C 308.38 168.74 304.63 168.05 301.00 167.00
C 302.07 173.31 316.34 180.57 316.00 172.00
C 319.51 179.22 325.81 185.16 328.00 193.00 Z"/>
</g>
<g fill="None" fill-opacity="0.0" stroke="#1924BF" stroke-opacity="0.96" stroke-width="0.3"><path d="
M 162.00 173.00 
C 157.09 182.67 160.79 195.68 154.00 205.00
C 153.41 209.68 155.47 215.23 156.00 220.00
C 156.39 223.50 156.62 232.74 158.78 235.22 C 160.94 237.70 171.01 235.34 174.00 235.00
C 175.54 234.82 177.73 233.46 180.00 234.00
C 182.06 231.38 179.93 225.18 179.00 222.00
C 176.70 214.09 172.67 204.65 171.98 196.02 C 171.28 187.40 165.28 177.93 165.00 170.00
C 164.31 171.15 163.42 172.52 162.00 173.00 Z"/>
</g>
<g fill="None" fill-opacity="0.0" stroke="#5D3924" stroke-opacity="0.97" stroke-width="0.3"><path d="
M 272.00 172.00 
C 273.50 175.07 272.48 177.87 272.00 181.00
C 275.54 175.34 280.51 181.94 285.00 179.00
C 283.13 175.08 277.71 175.26 276.00 171.00
C 274.45 170.59 272.72 172.02 272.00 172.00 Z"/>
</g>
<g fill="None" fill-opacity="0.0" stroke="#F0F1F1" stroke-opacity="0.42" stroke-width="0.3"><path d="
M 54.00 185.00 
C 53.23 180.80 51.12 177.05 50.00 173.00
C 48.52 172.78 45.08 173.14 44.00 172.00
C 45.48 173.55 46.41 178.05 48.25 179.75 C 50.08 181.45 52.92 183.10 54.00 185.00 Z"/>
</g>
<g fill="None" fill-opacity="0.0" stroke="#2D47FE" stroke-opacity="0.98" stroke-width="0.3"><path d="
M 116.00 214.00 
C 115.76 214.31 116.21 215.61 116.00 216.00
C 117.28 217.65 119.61 219.38 121.00 221.00
C 124.24 224.70 126.69 229.22 131.00 232.00
C 134.12 227.06 139.66 223.59 143.00 219.00
C 146.25 214.54 150.67 209.57 154.00 205.00
C 160.79 195.68 157.09 182.67 162.00 173.00
C 162.00 173.00 161.50 173.00 161.00 173.00
C 158.45 174.89 156.29 173.28 154.00 173.00
C 149.59 172.92 144.23 173.06 140.00 172.00
C 145.62 192.02 126.16 200.88 116.00 214.00 Z"/>
</g>
<g fill="None" fill-opacity="0.0" stroke="#EFF0F0" stroke-opacity="0.48" stroke-width="0.3"><path d="
M 320.00 173.00 
C 318.62 178.18 326.44 182.80 328.00 187.00
C 327.74 183.18 328.83 178.72 328.00 175.00
C 327.65 174.97 327.09 174.35 327.00 174.00
C 325.59 173.41 322.45 172.09 321.00 172.00
C 320.92 172.35 320.06 172.76 320.00 173.00 Z"/>
</g>
<g fill="None" fill-opacity="0.0" stroke="#A777C0" stroke-opacity="1.00" stroke-width="0.3"><path d="
M 161.00 173.00 
C 158.67 173.00 156.33 173.04 154.00 173.00
C 156.29 173.28 158.45 174.89 161.00 173.00 Z"/>
</g>
<g fill="None" fill-opacity="0.0" stroke="#A4CFD5" stroke-opacity="0.80" stroke-width="0.3"><path d="
M 328.00 187.00 
C 328.13 188.96 327.93 191.73 328.00 193.00
C 329.52 197.06 328.89 201.60 329.00 206.00
C 320.00 205.80 313.26 209.26 307.00 215.00
C 311.39 213.38 317.43 213.11 322.07 212.07 C 326.71 211.04 331.86 207.92 336.00 207.00
C 334.38 206.88 333.41 206.81 332.00 206.00
C 329.82 204.75 331.76 199.44 333.00 196.00
C 333.55 190.98 333.24 184.19 337.00 179.00
C 336.09 178.40 332.92 177.95 333.00 178.00
C 335.26 182.88 331.11 187.00 331.00 192.00
C 329.25 191.17 330.34 188.56 330.00 187.00
C 329.39 183.76 329.00 179.88 329.00 176.00
C 329.00 176.00 329.00 175.50 329.00 175.00
C 329.00 175.00 328.50 175.05 328.00 175.00
C 328.83 178.72 327.74 183.18 328.00 187.00 Z"/>
</g>
<g fill="None" fill-opacity="0.0" stroke="#F2F2F2" stroke-opacity="0.49" stroke-width="0.3"><path d="
M 330.00 176.00 
C 330.00 179.64 329.78 183.37 330.00 187.00
C 330.34 188.56 329.25 191.17 331.00 192.00
C 331.11 187.00 335.26 182.88 333.00 178.00
C 332.73 177.42 331.55 175.67 331.00 175.00
C 331.00 175.00 330.25 174.75 330.00 175.00
C 330.00 175.00 330.00 175.50 330.00 176.00 Z"/>
</g>
<g fill="None" fill-opacity="0.0" stroke="#C3DDDF" stroke-opacity="0.66" stroke-width="0.3"><path d="
M 330.00 187.00 
C 329.78 183.37 330.00 179.64 330.00 176.00
C 330.00 176.00 329.25 176.25 329.00 176.00
C 329.00 179.88 329.39 183.76 330.00 187.00 Z"/>
</g>
<g fill="None" fill-opacity="0.0" stroke="#EBEEEE" stroke-opacity="0.51" stroke-width="0.3"><path d="
M 333.00 196.00 
C 336.15 187.25 339.95 186.78 348.00 184.00
C 347.68 183.91 346.40 182.14 346.00 182.00
C 343.33 182.00 340.67 182.00 338.00 182.00
C 338.03 180.68 338.09 179.72 337.00 179.00
C 333.24 184.19 333.55 190.98 333.00 196.00 Z"/>
</g>
<g fill="None" fill-opacity="0.0" stroke="#7CA8B1" stroke-opacity="0.81" stroke-width="0.3"><path d="
M 333.00 196.00 
C 331.76 199.44 329.82 204.75 332.00 206.00
C 336.33 201.54 332.92 185.82 344.00 187.00
C 341.07 191.65 348.25 195.15 351.00 198.00
C 355.11 192.91 353.96 188.93 350.00 184.00
C 349.50 183.98 348.45 183.85 348.00 184.00
C 339.95 186.78 336.15 187.25 333.00 196.00 Z"/>
</g>
<g fill="None" fill-opacity="0.0" stroke="#57939F" stroke-opacity="0.62" stroke-width="0.3"><path d="
M 351.00 198.00 
C 350.76 198.30 350.94 199.51 351.00 200.00
C 351.41 203.42 350.99 208.68 352.00 212.00
C 353.38 213.19 354.07 215.19 356.00 216.00
C 363.68 219.21 367.52 204.29 365.98 198.03 C 364.43 191.76 357.27 184.23 350.00 184.00
C 353.96 188.93 355.11 192.91 351.00 198.00 Z"/>
</g>
<g fill="None" fill-opacity="0.0" stroke="#5892A0" stroke-opacity="0.31" stroke-width="0.3"><path d="
M 60.00 212.00 
C 60.85 212.57 60.67 212.91 62.00 213.00
C 63.45 211.48 62.00 201.31 62.00 199.00
C 61.84 198.26 61.10 197.27 61.00 196.00
C 60.61 194.60 59.75 191.58 59.00 190.00
C 58.27 189.38 57.74 187.74 57.00 187.00
C 56.32 186.32 54.61 185.83 54.00 185.00
C 58.44 192.79 56.02 204.15 60.00 212.00 Z"/>
</g>
<g fill="None" fill-opacity="0.0" stroke="#EFF0F0" stroke-opacity="0.49" stroke-width="0.3"><path d="
M 332.00 206.00 
C 333.41 206.81 334.38 206.88 336.00 207.00
C 337.33 207.10 338.67 206.91 340.00 207.00
C 342.38 206.56 349.59 202.42 351.00 200.00
C 350.94 199.51 350.76 198.30 351.00 198.00
C 348.25 195.15 341.07 191.65 344.00 187.00
C 332.92 185.82 336.33 201.54 332.00 206.00 Z"/>
</g>
<g fill="None" fill-opacity="0.0" stroke="#000000" stroke-opacity="0.00" stroke-width="0.3"><path d="
M 61.00 196.00 
C 60.90 194.71 60.58 192.21 61.00 191.00
C 60.37 190.89 59.49 190.42 59.00 190.00
C 59.75 191.58 60.61 194.60 61.00 196.00 Z"/>
</g>
<g fill="None" fill-opacity="0.0" stroke="#ABD6DC" stroke-opacity="0.05" stroke-width="0.3"><path d="
M 61.00 196.00 
C 61.10 197.27 61.84 198.26 62.00 199.00
C 62.00 196.67 62.00 194.33 62.00 192.00
C 62.00 192.00 62.22 191.38 62.00 191.00
C 62.00 191.00 61.48 191.09 61.00 191.00
C 60.58 192.21 60.90 194.71 61.00 196.00 Z"/>
</g>
<g fill="None" fill-opacity="0.0" stroke="#8DC6CD" stroke-opacity="0.45" stroke-width="0.3"><path d="
M 62.00 199.00 
C 62.00 201.31 63.45 211.48 62.00 213.00
C 62.99 213.07 64.00 212.94 65.00 213.00
C 64.05 206.37 69.71 200.73 69.00 195.00
C 68.03 195.55 67.43 194.29 67.00 194.00
C 67.00 194.00 66.50 194.05 66.00 194.00
C 64.79 197.14 65.88 199.76 65.00 203.00
C 63.46 200.72 63.28 195.21 65.00 193.00
C 65.00 193.00 65.05 192.50 65.00 192.00
C 64.53 191.50 62.47 192.50 62.00 192.00
C 62.00 194.33 62.00 196.67 62.00 199.00 Z"/>
</g>
<g fill="None" fill-opacity="0.0" stroke="#5B868A" stroke-opacity="0.22" stroke-width="0.3"><path d="
M 66.00 194.00 
C 65.65 193.97 65.03 193.35 65.00 193.00
C 63.28 195.21 63.46 200.72 65.00 203.00
C 65.88 199.76 64.79 197.14 66.00 194.00 Z"/>
</g>
<g fill="None" fill-opacity="0.0" stroke="#C2DEE2" stroke-opacity="0.45" stroke-width="0.3"><path d="
M 62.00 213.00 
C 60.67 212.91 60.85 212.57 60.00 212.00
C 60.00 212.00 59.50 212.00 59.00 212.00
C 56.55 213.81 53.56 211.57 52.00 212.00
C 48.02 213.34 49.22 218.87 50.00 222.00
C 50.12 222.48 50.88 223.06 51.00 224.00
C 52.31 234.15 61.44 233.84 68.92 231.92 C 76.41 230.01 76.47 215.45 73.00 213.00
C 70.92 211.90 67.46 214.45 66.00 212.00
C 64.14 208.87 73.43 201.28 74.00 199.00
C 73.60 198.59 73.50 197.44 73.00 197.00
C 72.42 196.49 69.27 196.28 69.00 195.00
C 69.71 200.73 64.05 206.37 65.00 213.00
C 64.00 212.94 62.99 213.07 62.00 213.00 Z"/>
</g>
<g fill="None" fill-opacity="0.0" stroke="#372D84" stroke-opacity="0.96" stroke-width="0.3"><path d="
M 240.00 200.00 
C 243.93 200.35 243.44 205.54 245.32 209.68 C 247.20 213.81 248.61 218.66 250.00 223.00
C 251.37 227.28 252.66 230.72 256.00 233.00
C 257.09 231.40 262.62 231.64 264.00 233.00
C 264.15 229.19 263.10 225.46 262.00 222.00
C 261.06 219.04 259.78 213.10 258.99 210.01 C 258.20 206.92 259.25 199.63 257.00 198.00
C 251.34 198.00 245.66 198.11 240.00 198.00
C 240.14 198.05 240.01 199.50 240.00 200.00 Z"/>
</g>
<g fill="None" fill-opacity="0.0" stroke="#E8E8EA" stroke-opacity="0.51" stroke-width="0.3"><path d="
M 240.00 200.00 
C 239.80 207.84 236.17 215.34 235.00 223.00
C 240.00 223.00 245.00 223.00 250.00 223.00
C 248.61 218.66 247.20 213.81 245.32 209.68 C 243.44 205.54 243.93 200.35 240.00 200.00 Z"/>
</g>
<g fill="None" fill-opacity="0.0" stroke="#000000" stroke-opacity="0.00" stroke-width="0.3"><path d="
M 340.00 207.00 
C 344.13 207.27 348.83 209.26 352.00 212.00
C 350.99 208.68 351.41 203.42 351.00 200.00
C 349.59 202.42 342.38 206.56 340.00 207.00 Z"/>
</g>
<g fill="None" fill-opacity="0.0" stroke="#F2F2F2" stroke-opacity="0.72" stroke-width="0.3"><path d="
M 51.00 224.00 
C 50.88 223.06 50.12 222.48 50.00 222.00
C 48.93 223.28 47.40 218.81 45.00 219.00
C 47.21 213.21 51.29 208.32 54.00 203.00
C 49.72 203.78 47.83 209.06 44.00 211.00
C 43.15 207.57 46.88 203.55 45.00 201.00
C 41.70 203.14 41.82 207.65 40.00 211.00
C 37.12 208.16 34.28 203.13 30.00 202.00
C 30.54 205.25 33.86 207.54 34.00 211.00
C 31.43 210.04 29.58 207.99 27.00 207.00
C 28.39 211.98 34.44 214.47 37.00 219.00
C 21.25 228.90 49.43 241.04 51.00 224.00 Z"/>
</g>
<g fill="None" fill-opacity="0.0" stroke="#625776" stroke-opacity="0.87" stroke-width="0.3"><path d="
M 224.00 214.00 
C 224.26 211.31 225.00 207.43 225.00 204.00
C 224.74 206.69 224.00 210.58 224.00 214.00 Z"/>
</g>
<g fill="None" fill-opacity="0.0" stroke="#EBECF2" stroke-opacity="0.48" stroke-width="0.3"><path d="
M 143.00 219.00 
C 147.41 217.84 151.53 221.22 156.00 220.00
C 155.47 215.23 153.41 209.68 154.00 205.00
C 150.67 209.57 146.25 214.54 143.00 219.00 Z"/>
</g>
<g fill="None" fill-opacity="0.0" stroke="#8AC6CD" stroke-opacity="0.66" stroke-width="0.3"><path d="
M 307.00 215.00 
C 306.36 215.59 304.87 216.65 304.00 217.00
C 300.72 224.44 313.29 229.96 318.93 231.07 C 324.56 232.19 336.82 232.86 342.93 230.93 C 349.04 228.99 358.54 224.36 356.00 216.00
C 354.07 215.19 353.38 213.19 352.00 212.00
C 348.83 209.26 344.13 207.27 340.00 207.00
C 338.67 206.91 337.33 207.10 336.00 207.00
C 331.86 207.92 326.71 211.04 322.07 212.07 C 317.43 213.11 311.39 213.38 307.00 215.00 Z"/>
</g>
<g fill="None" fill-opacity="0.0" stroke="#AAFFFF" stroke-opacity="0.01" stroke-width="0.3"><path d="
M 59.00 212.00 
C 57.03 212.00 53.85 211.38 52.00 212.00
C 53.56 211.57 56.55 213.81 59.00 212.00 Z"/>
</g>
<g fill="None" fill-opacity="0.0" stroke="#AAFFFF" stroke-opacity="0.01" stroke-width="0.3"><path d="
M 73.00 213.00 
C 71.07 211.64 68.61 211.94 66.00 212.00
C 67.46 214.45 70.92 211.90 73.00 213.00 Z"/>
</g>
<g fill="None" fill-opacity="0.0" stroke="#B5916D" stroke-opacity="0.82" stroke-width="0.3"><path d="
M 113.00 219.00 
C 115.68 220.46 113.33 223.29 118.00 222.00
C 118.41 221.89 120.74 220.96 121.00 221.00
C 119.61 219.38 117.28 217.65 116.00 216.00
C 115.95 216.10 113.19 218.89 113.00 219.00 Z"/>
</g>
<g fill="None" fill-opacity="0.0" stroke="#E6E5E5" stroke-opacity="0.76" stroke-width="0.3"><path d="
M 118.00 222.00 
C 113.33 223.29 115.68 220.46 113.00 219.00
C 100.33 219.73 116.12 233.67 121.00 238.00
C 123.57 232.64 117.99 227.53 118.00 222.00 Z"/>
</g>
<g fill="None" fill-opacity="0.0" stroke="#2D0955" stroke-opacity="0.51" stroke-width="0.3"><path d="
M 223.00 224.00 
C 221.89 226.23 222.66 231.66 225.00 232.00
C 225.49 232.07 226.00 232.00 226.00 232.00
C 225.21 230.45 223.98 227.97 224.99 226.01 C 226.00 224.06 222.80 222.64 223.00 224.00 Z"/>
</g>
<g fill="None" fill-opacity="0.0" stroke="#4E2E1D" stroke-opacity="0.89" stroke-width="0.3"><path d="
M 225.00 235.00 
C 225.31 234.98 231.87 235.90 232.00 236.00
C 231.86 235.00 231.71 232.96 232.00 232.00
C 230.42 232.54 227.68 232.00 226.00 232.00
C 226.00 232.00 225.49 232.07 225.00 232.00
C 224.51 232.46 225.38 234.42 225.00 235.00 Z"/>
</g>
<g fill="None" fill-opacity="0.0" stroke="#553326" stroke-opacity="0.88" stroke-width="0.3"><path d="
M 256.00 233.00 
C 256.23 233.16 256.21 234.62 256.00 235.00
C 257.40 236.38 262.89 236.63 264.00 235.00
C 263.81 234.59 263.98 233.50 264.00 233.00
C 262.62 231.64 257.09 231.40 256.00 233.00 Z"/>
</g>
<g fill="None" fill-opacity="0.0" stroke="#B7906C" stroke-opacity="0.86" stroke-width="0.3"><path d="
M 174.00 235.00 
C 173.92 234.96 175.01 236.97 175.00 237.00
C 177.21 239.00 179.78 237.74 180.00 235.00
C 180.00 235.00 179.76 234.31 180.00 234.00
C 177.73 233.46 175.54 234.82 174.00 235.00 Z"/>
</g>
<g fill="None" fill-opacity="0.0" stroke="#E5E5E5" stroke-opacity="0.79" stroke-width="0.3"><path d="
M 175.00 237.00 
C 172.31 237.72 173.08 240.92 173.00 243.00
C 177.02 242.36 192.38 244.40 194.59 241.75 C 196.81 239.09 181.51 235.17 180.00 235.00
C 179.78 237.74 177.21 239.00 175.00 237.00 Z"/>
</g>
<g fill="None" fill-opacity="0.0" stroke="#1A1947" stroke-opacity="0.81" stroke-width="0.3"><path d="
M 232.00 236.00 
C 231.87 235.90 225.31 234.98 225.00 235.00
C 220.76 238.14 211.48 236.89 211.00 243.00
C 218.33 243.00 225.67 243.00 233.00 243.00
C 233.89 240.62 232.23 237.69 232.00 236.00 Z"/>
</g>
<g fill="None" fill-opacity="0.0" stroke="#191848" stroke-opacity="0.81" stroke-width="0.3"><path d="
M 264.00 235.00 
C 262.89 236.63 257.40 236.38 256.00 235.00
C 253.16 239.32 242.92 236.27 244.00 243.00
C 252.00 241.46 270.16 247.87 264.00 235.00 Z"/>
</g>
<g fill="#000000" fill-opacity="0.00" stroke="None">
<path d="
M 0.00 277.00 
L 400.00 277.00
L 400.00 0.00
L 0.00 0.00
L 0.00 277.00
M 371.00 72.00 
C 372.68 80.24 380.96 87.32 378.00 97.00
C 372.90 95.68 375.88 87.60 373.22 83.78 C 370.57 79.96 370.45 75.16 367.00 72.00
C 359.67 72.58 354.30 70.07 352.08 61.92 C 349.85 53.77 340.98 55.06 337.08 48.92 C 333.18 42.78 331.91 33.54 337.75 27.75 C 343.60 21.96 350.69 26.77 353.92 33.08 C 357.16 39.38 355.32 47.55 362.75 52.25 C 370.19 56.94 369.46 64.43 371.00 72.00
M 53.00 99.00 
C 55.60 105.43 55.97 113.79 57.33 120.67 C 58.69 127.55 61.48 135.81 61.00 143.00
C 62.55 141.63 64.99 141.04 67.00 141.00
C 72.89 119.39 72.60 92.31 93.00 78.00
C 93.07 85.64 93.78 96.88 90.22 103.22 C 86.67 109.57 86.76 116.70 79.25 120.25 C 71.74 123.80 70.16 131.31 70.00 140.00
C 72.50 138.45 75.40 139.37 78.00 138.00
C 79.15 137.39 80.77 135.77 82.00 135.00
C 89.66 130.19 99.39 129.79 102.30 119.30 C 105.22 108.81 114.80 107.34 121.00 101.00
C 121.45 114.95 115.12 128.62 104.00 137.00
C 107.87 136.52 112.10 137.00 116.00 137.00
C 121.95 137.00 135.82 140.95 141.00 138.00
C 141.65 134.93 144.19 132.51 144.31 129.31 C 144.42 126.10 149.32 124.48 150.00 123.00
C 150.34 122.25 150.12 119.83 150.00 119.00
C 149.44 115.16 144.35 111.81 146.93 107.92 C 149.50 104.04 153.02 101.79 159.00 103.00 C 164.98 104.21 163.17 108.81 163.00 112.00
C 162.73 117.00 165.75 121.50 159.00 123.00
C 158.81 127.60 161.15 131.67 162.00 136.00
C 164.06 133.55 172.01 132.95 175.00 131.00
C 178.05 129.01 180.04 124.75 184.00 125.00
C 182.78 128.38 181.66 130.25 184.00 133.00
C 182.06 133.91 180.32 135.33 178.00 135.00
C 175.82 136.61 174.67 140.56 172.00 142.00
C 174.01 141.82 176.87 143.02 178.00 143.00
C 180.22 142.21 185.24 142.15 187.00 141.00
C 187.12 139.28 189.46 137.95 189.00 136.00
C 191.54 139.18 195.74 135.23 198.23 136.79 C 200.72 138.35 195.38 144.34 194.00 145.00
C 198.78 144.78 203.63 147.15 208.07 146.93 C 212.52 146.71 218.90 150.43 223.00 149.00
C 225.87 145.36 228.23 140.59 231.25 137.25 C 234.28 133.92 234.58 126.26 238.00 124.00
C 236.63 123.30 234.98 122.51 233.00 123.00
C 231.56 119.31 232.07 115.05 232.00 111.00
C 231.62 104.48 235.79 100.31 244.22 103.78 C 252.65 107.25 245.72 114.28 245.00 119.00
C 244.72 120.82 246.28 121.23 245.00 123.00
C 251.47 122.02 257.89 134.67 262.30 138.70 C 266.72 142.73 272.26 154.02 274.00 160.00
C 282.24 161.57 291.38 162.26 299.00 166.00
C 291.33 157.60 293.14 144.72 295.00 135.00
C 295.39 132.96 293.73 128.22 299.00 128.00
C 298.26 125.30 294.86 125.43 294.00 123.00
C 287.74 133.48 278.08 119.00 291.00 120.00
C 289.30 118.78 287.66 117.22 287.00 115.00
C 283.72 115.43 280.53 116.48 277.00 116.00
C 275.51 111.60 279.74 111.33 282.00 110.00
C 279.21 105.02 264.17 106.58 276.00 101.00
C 274.85 94.95 270.74 97.46 266.33 95.67 C 261.92 93.88 269.18 87.36 272.00 91.00
C 274.65 85.67 264.86 75.07 274.00 75.00
C 274.06 79.62 272.45 85.62 279.00 83.00
C 279.09 85.39 278.01 89.16 275.00 89.00
C 274.47 95.04 278.15 94.92 283.00 94.00
C 284.11 97.47 280.99 99.32 279.00 101.00
C 282.28 106.68 281.99 100.15 286.08 100.08 C 290.17 100.01 288.26 108.07 284.00 107.00
C 285.26 108.93 287.00 110.91 289.00 112.00
C 289.32 100.09 302.15 110.54 292.00 115.00
C 292.16 117.64 295.02 119.62 297.00 121.00
C 298.36 109.03 308.18 117.93 301.00 125.00
C 303.41 126.11 304.62 128.96 307.00 130.00
C 303.76 115.84 318.71 124.23 310.00 132.00
C 311.26 133.93 313.00 135.91 315.00 137.00
C 314.19 126.04 328.41 134.37 318.00 139.00
C 319.52 143.59 324.39 146.87 325.00 152.00
C 325.74 153.87 327.69 157.09 328.00 159.00
C 328.00 157.67 328.01 156.33 328.00 155.00
C 327.98 151.37 328.45 148.43 329.00 145.00
C 331.88 126.88 336.07 104.75 351.00 93.00
C 348.69 110.77 349.37 136.63 331.00 145.00
C 332.11 147.50 330.17 151.24 330.00 153.00
C 329.78 155.29 330.00 157.70 330.00 160.00
C 330.00 165.00 330.00 170.00 330.00 175.00
C 330.25 174.75 331.00 175.00 331.00 175.00
C 332.11 165.59 338.74 161.38 343.75 153.75 C 348.76 146.12 345.90 135.03 351.31 127.31 C 356.71 119.58 366.96 116.25 374.25 122.75 C 381.53 129.26 383.02 139.09 380.67 147.67 C 378.32 156.25 374.14 164.42 364.98 165.98 C 355.81 167.53 354.54 179.92 346.00 182.00
C 346.40 182.14 347.68 183.91 348.00 184.00
C 348.45 183.85 349.50 183.98 350.00 184.00
C 357.27 184.23 364.43 191.76 365.98 198.03 C 367.52 204.29 363.68 219.21 356.00 216.00
C 358.54 224.36 349.04 228.99 342.93 230.93 C 336.82 232.86 324.56 232.19 318.93 231.07 C 313.29 229.96 300.72 224.44 304.00 217.00
C 300.39 218.44 294.94 218.57 290.98 218.98 C 287.02 219.38 280.72 221.29 276.93 220.93 C 273.14 220.57 265.02 223.59 262.00 222.00
C 263.10 225.46 264.15 229.19 264.00 233.00
C 263.98 233.50 263.81 234.59 264.00 235.00
C 270.16 247.87 252.00 241.46 244.00 243.00
C 242.92 236.27 253.16 239.32 256.00 235.00
C 256.21 234.62 256.23 233.16 256.00 233.00
C 252.66 230.72 251.37 227.28 250.00 223.00
C 245.00 223.00 240.00 223.00 235.00 223.00
C 234.44 226.69 232.63 229.90 232.00 232.00
C 231.71 232.96 231.86 235.00 232.00 236.00
C 232.23 237.69 233.89 240.62 233.00 243.00
C 225.67 243.00 218.33 243.00 211.00 243.00
C 211.48 236.89 220.76 238.14 225.00 235.00
C 225.38 234.42 224.51 232.46 225.00 232.00
C 222.66 231.66 221.89 226.23 223.00 224.00
C 218.86 226.92 206.02 222.44 201.00 223.00 C 195.98 223.56 182.99 224.91 179.00 222.00
C 179.93 225.18 182.06 231.38 180.00 234.00
C 179.76 234.31 180.00 235.00 180.00 235.00
C 181.51 235.17 196.81 239.09 194.59 241.75 C 192.38 244.40 177.02 242.36 173.00 243.00
C 173.08 240.92 172.31 237.72 175.00 237.00
C 175.01 236.97 173.92 234.96 174.00 235.00
C 171.01 235.34 160.94 237.70 158.78 235.22 C 156.62 232.74 156.39 223.50 156.00 220.00
C 151.53 221.22 147.41 217.84 143.00 219.00
C 139.66 223.59 134.12 227.06 131.00 232.00
C 126.69 229.22 124.24 224.70 121.00 221.00
C 120.74 220.96 118.41 221.89 118.00 222.00
C 117.99 227.53 123.57 232.64 121.00 238.00
C 116.12 233.67 100.33 219.73 113.00 219.00
C 113.19 218.89 115.95 216.10 116.00 216.00
C 116.21 215.61 115.76 214.31 116.00 214.00
C 112.34 209.22 99.97 211.15 94.78 207.22 C 89.58 203.30 78.85 203.95 74.00 199.00
C 73.43 201.28 64.14 208.87 66.00 212.00
C 68.61 211.94 71.07 211.64 73.00 213.00
C 76.47 215.45 76.41 230.01 68.92 231.92 C 61.44 233.84 52.31 234.15 51.00 224.00
C 49.43 241.04 21.25 228.90 37.00 219.00
C 34.44 214.47 28.39 211.98 27.00 207.00
C 29.58 207.99 31.43 210.04 34.00 211.00
C 33.86 207.54 30.54 205.25 30.00 202.00
C 34.28 203.13 37.12 208.16 40.00 211.00
C 41.82 207.65 41.70 203.14 45.00 201.00
C 46.88 203.55 43.15 207.57 44.00 211.00
C 47.83 209.06 49.72 203.78 54.00 203.00
C 51.29 208.32 47.21 213.21 45.00 219.00
C 47.40 218.81 48.93 223.28 50.00 222.00
C 49.22 218.87 48.02 213.34 52.00 212.00
C 53.85 211.38 57.03 212.00 59.00 212.00
C 59.50 212.00 60.00 212.00 60.00 212.00
C 56.02 204.15 58.44 192.79 54.00 185.00
C 52.92 183.10 50.08 181.45 48.25 179.75 C 46.41 178.05 45.48 173.55 44.00 172.00
C 39.21 166.97 31.86 164.64 29.23 156.77 C 26.60 148.90 22.45 140.87 23.00 132.00
C 33.02 136.30 39.05 148.46 45.00 157.00
C 45.39 154.56 55.20 143.34 58.00 145.00
C 55.06 133.00 57.15 118.81 45.75 113.25 C 34.36 107.69 32.75 96.79 29.01 85.99 C 25.26 75.20 28.59 58.04 30.00 47.00
C 39.71 62.91 47.99 79.87 52.00 98.00
C 54.14 90.86 59.90 79.18 57.00 74.00
C 57.15 68.98 62.12 71.92 64.00 74.00
C 67.80 71.15 62.91 69.74 64.01 65.99 C 65.10 62.24 71.03 65.04 69.00 69.00
C 74.82 66.82 70.36 63.34 71.00 59.00
C 75.14 57.72 74.35 62.41 76.00 64.00
C 79.98 60.10 78.04 60.30 76.23 55.77 C 74.42 51.24 83.84 52.30 81.00 58.00
C 85.65 55.88 82.34 52.35 82.00 49.00
C 85.14 47.51 85.64 51.73 88.00 50.00
C 85.04 47.44 85.89 41.58 91.00 45.00
C 91.40 42.53 92.21 40.00 89.00 39.00
C 89.70 35.59 92.78 34.42 93.00 30.00
C 99.24 31.45 92.44 37.77 94.00 42.00
C 101.87 39.34 98.09 48.16 92.00 47.00
C 90.67 50.27 95.62 49.87 95.00 53.00
C 89.21 53.35 85.44 54.43 91.00 59.00
C 88.01 61.58 84.45 57.82 82.00 61.00
C 83.53 63.20 85.87 64.90 85.00 68.00
C 80.69 67.81 77.91 64.81 74.00 68.00
C 82.87 74.39 73.45 74.27 68.00 73.00
C 74.81 76.34 68.96 81.59 64.00 77.00
C 57.40 82.92 55.70 91.61 53.00 99.00
M 317.00 42.00 
C 317.65 43.94 319.09 47.56 317.00 49.00
C 315.71 47.59 314.96 45.14 315.00 43.00
C 314.28 41.14 313.01 39.67 312.00 38.00
C 302.90 38.38 308.40 54.40 301.77 54.77 C 295.13 55.13 293.51 40.05 299.75 36.75 C 305.99 33.46 315.09 32.99 317.00 42.00
M 342.00 71.00 
C 345.97 73.28 352.33 75.37 353.00 80.00
C 349.20 78.32 344.89 75.97 342.00 73.00
C 338.28 79.35 328.81 72.55 321.98 75.98 C 315.14 79.40 309.35 63.97 320.01 65.01 C 330.67 66.05 333.39 66.04 342.00 71.00 Z"/>
</g>
<g fill="#F3F3F3" fill-opacity="0.89" stroke="None">
<path d="
M 367.00 72.00 
C 366.86 72.01 370.97 71.97 371.00 72.00
C 369.46 64.43 370.19 56.94 362.75 52.25 C 355.32 47.55 357.16 39.38 353.92 33.08 C 350.69 26.77 343.60 21.96 337.75 27.75 C 331.91 33.54 333.18 42.78 337.08 48.92 C 340.98 55.06 349.85 53.77 352.08 61.92 C 354.30 70.07 359.67 72.58 367.00 72.00
M 366.00 71.00 
C 360.60 62.75 353.93 55.33 349.00 47.00
C 355.94 53.96 362.46 61.57 366.00 71.00 Z"/>
</g>
<g fill="#C8E5E9" fill-opacity="0.12" stroke="None">
<path d="
M 52.00 98.00 
C 52.11 98.35 52.90 98.74 53.00 99.00
C 55.70 91.61 57.40 82.92 64.00 77.00
C 68.96 81.59 74.81 76.34 68.00 73.00
C 73.45 74.27 82.87 74.39 74.00 68.00
C 77.91 64.81 80.69 67.81 85.00 68.00
C 85.87 64.90 83.53 63.20 82.00 61.00
C 84.45 57.82 88.01 61.58 91.00 59.00
C 85.44 54.43 89.21 53.35 95.00 53.00
C 95.62 49.87 90.67 50.27 92.00 47.00
C 98.09 48.16 101.87 39.34 94.00 42.00
C 92.44 37.77 99.24 31.45 93.00 30.00
C 92.78 34.42 89.70 35.59 89.00 39.00
C 92.21 40.00 91.40 42.53 91.00 45.00
C 85.89 41.58 85.04 47.44 88.00 50.00
C 85.64 51.73 85.14 47.51 82.00 49.00
C 82.34 52.35 85.65 55.88 81.00 58.00
C 83.84 52.30 74.42 51.24 76.23 55.77 C 78.04 60.30 79.98 60.10 76.00 64.00
C 74.35 62.41 75.14 57.72 71.00 59.00
C 70.36 63.34 74.82 66.82 69.00 69.00
C 71.03 65.04 65.10 62.24 64.01 65.99 C 62.91 69.74 67.80 71.15 64.00 74.00
C 62.12 71.92 57.15 68.98 57.00 74.00
C 59.90 79.18 54.14 90.86 52.00 98.00 Z"/>
</g>
<g fill="#F4F4F4" fill-opacity="0.75" stroke="None">
<path d="
M 315.00 43.00 
C 315.13 42.68 316.96 42.15 317.00 42.00
C 315.09 32.99 305.99 33.46 299.75 36.75 C 293.51 40.05 295.13 55.13 301.77 54.77 C 308.40 54.40 302.90 38.38 312.00 38.00
C 313.01 39.67 314.28 41.14 315.00 43.00 Z"/>
</g>
<g fill="#F5F5F5" fill-opacity="0.38" stroke="None">
<path d="
M 315.00 43.00 
C 314.96 45.14 315.71 47.59 317.00 49.00
C 319.09 47.56 317.65 43.94 317.00 42.00
C 316.96 42.15 315.13 42.68 315.00 43.00 Z"/>
</g>
<g fill="#8CC6CC" fill-opacity="0.44" stroke="None">
<path d="
M 58.00 145.00 
C 58.65 143.97 60.22 144.49 61.00 144.00
C 60.84 143.56 61.00 143.00 61.00 143.00
C 61.48 135.81 58.69 127.55 57.33 120.67 C 55.97 113.79 55.60 105.43 53.00 99.00
C 52.90 98.74 52.11 98.35 52.00 98.00
C 47.99 79.87 39.71 62.91 30.00 47.00
C 28.59 58.04 25.26 75.20 29.01 85.99 C 32.75 96.79 34.36 107.69 45.75 113.25 C 57.15 118.81 55.06 133.00 58.00 145.00 Z"/>
</g>
<g fill="#F4F4F4" fill-opacity="0.34" stroke="None">
<path d="
M 366.00 71.00 
C 362.46 61.57 355.94 53.96 349.00 47.00
C 353.93 55.33 360.60 62.75 366.00 71.00 Z"/>
</g>
<g fill="#F3F3F3" fill-opacity="0.77" stroke="None">
<path d="
M 342.00 73.00 
C 341.85 72.55 342.23 71.35 342.00 71.00
C 333.39 66.04 330.67 66.05 320.01 65.01 C 309.35 63.97 315.14 79.40 321.98 75.98 C 328.81 72.55 338.28 79.35 342.00 73.00
M 331.00 68.00 
C 329.23 70.03 325.52 68.53 323.00 69.00
C 324.77 66.97 328.48 68.47 331.00 68.00 Z"/>
</g>
<g fill="#F3F3F3" fill-opacity="0.40" stroke="None">
<path d="
M 331.00 68.00 
C 328.48 68.47 324.77 66.97 323.00 69.00
C 325.52 68.53 329.23 70.03 331.00 68.00 Z"/>
</g>
<g fill="#F4F4F4" fill-opacity="0.45" stroke="None">
<path d="
M 342.00 73.00 
C 344.89 75.97 349.20 78.32 353.00 80.00
C 352.33 75.37 345.97 73.28 342.00 71.00
C 342.23 71.35 341.85 72.55 342.00 73.00 Z"/>
</g>
<g fill="#F4F4F4" fill-opacity="0.51" stroke="None">
<path d="
M 367.00 72.00 
C 370.45 75.16 370.57 79.96 373.22 83.78 C 375.88 87.60 372.90 95.68 378.00 97.00
C 380.96 87.32 372.68 80.24 371.00 72.00
C 370.97 71.97 366.86 72.01 367.00 72.00 Z"/>
</g>
<g fill="#F3F3F3" fill-opacity="0.66" stroke="None">
<path d="
M 295.00 135.00 
C 298.84 131.41 305.20 132.06 309.00 135.00
C 310.92 136.49 311.07 136.92 312.00 139.00
C 312.12 139.26 312.73 139.80 313.00 140.00
C 317.37 143.28 320.82 149.07 323.00 154.00
C 323.25 153.26 324.75 153.17 325.00 152.00
C 324.39 146.87 319.52 143.59 318.00 139.00
C 328.41 134.37 314.19 126.04 315.00 137.00
C 313.00 135.91 311.26 133.93 310.00 132.00
C 318.71 124.23 303.76 115.84 307.00 130.00
C 304.62 128.96 303.41 126.11 301.00 125.00
C 308.18 117.93 298.36 109.03 297.00 121.00
C 295.02 119.62 292.16 117.64 292.00 115.00
C 302.15 110.54 289.32 100.09 289.00 112.00
C 287.00 110.91 285.26 108.93 284.00 107.00
C 288.26 108.07 290.17 100.01 286.08 100.08 C 281.99 100.15 282.28 106.68 279.00 101.00
C 280.99 99.32 284.11 97.47 283.00 94.00
C 278.15 94.92 274.47 95.04 275.00 89.00
C 278.01 89.16 279.09 85.39 279.00 83.00
C 272.45 85.62 274.06 79.62 274.00 75.00
C 264.86 75.07 274.65 85.67 272.00 91.00
C 269.18 87.36 261.92 93.88 266.33 95.67 C 270.74 97.46 274.85 94.95 276.00 101.00
C 264.17 106.58 279.21 105.02 282.00 110.00
C 279.74 111.33 275.51 111.60 277.00 116.00
C 280.53 116.48 283.72 115.43 287.00 115.00
C 287.66 117.22 289.30 118.78 291.00 120.00
C 278.08 119.00 287.74 133.48 294.00 123.00
C 294.86 125.43 298.26 125.30 299.00 128.00
C 293.73 128.22 295.39 132.96 295.00 135.00 Z"/>
</g>
<g fill="#5A939D" fill-opacity="0.42" stroke="None">
<path d="
M 67.00 141.00 
C 67.50 140.99 68.00 141.00 68.00 141.00
C 68.50 141.00 69.00 141.00 69.00 141.00
C 69.26 140.88 69.68 140.20 70.00 140.00
C 70.16 131.31 71.74 123.80 79.25 120.25 C 86.76 116.70 86.67 109.57 90.22 103.22 C 93.78 96.88 93.07 85.64 93.00 78.00
C 72.60 92.31 72.89 119.39 67.00 141.00 Z"/>
</g>
<g fill="#8CC6CE" fill-opacity="0.60" stroke="None">
<path d="
M 329.00 145.00 
C 329.17 144.76 330.51 145.06 331.00 145.00
C 349.37 136.63 348.69 110.77 351.00 93.00
C 336.07 104.75 331.88 126.88 329.00 145.00 Z"/>
</g>
<g fill="#8CC5CC" fill-opacity="0.44" stroke="None">
<path d="
M 82.00 135.00 
C 81.24 135.85 80.52 137.03 80.00 138.00
C 86.16 138.66 93.66 136.68 99.00 139.00
C 100.16 138.60 100.71 138.20 102.00 138.00
C 102.82 137.60 102.74 137.16 104.00 137.00
C 115.12 128.62 121.45 114.95 121.00 101.00
C 114.80 107.34 105.22 108.81 102.30 119.30 C 99.39 129.79 89.66 130.19 82.00 135.00 Z"/>
</g>
<g fill="#4D332E" fill-opacity="0.85" stroke="None">
<path d="
M 150.00 119.00 
C 150.27 118.08 153.28 114.58 153.00 112.00
C 156.81 116.10 158.81 108.14 163.00 112.00
C 163.17 108.81 164.98 104.21 159.00 103.00 C 153.02 101.79 149.50 104.04 146.93 107.92 C 144.35 111.81 149.44 115.16 150.00 119.00 Z"/>
</g>
<g fill="#2E1C19" fill-opacity="0.86" stroke="None">
<path d="
M 232.00 111.00 
C 233.95 112.81 240.98 113.39 243.00 112.00
C 243.61 114.22 241.38 119.04 245.00 119.00
C 245.72 114.28 252.65 107.25 244.22 103.78 C 235.79 100.31 231.62 104.48 232.00 111.00 Z"/>
</g>
<g fill="#AD8765" fill-opacity="0.88" stroke="None">
<path d="
M 150.00 119.00 
C 150.12 119.83 150.34 122.25 150.00 123.00
C 152.83 122.29 156.15 123.63 159.00 123.00
C 165.75 121.50 162.73 117.00 163.00 112.00
C 158.81 108.14 156.81 116.10 153.00 112.00
C 153.28 114.58 150.27 118.08 150.00 119.00 Z"/>
</g>
<g fill="#56331F" fill-opacity="0.89" stroke="None">
<path d="
M 238.00 124.00 
C 238.27 124.14 238.68 125.03 239.00 125.00
C 238.74 125.02 242.70 124.83 242.00 125.00
C 241.76 125.06 245.21 122.71 245.00 123.00
C 246.28 121.23 244.72 120.82 245.00 119.00
C 241.38 119.04 243.61 114.22 243.00 112.00
C 240.98 113.39 233.95 112.81 232.00 111.00
C 232.07 115.05 231.56 119.31 233.00 123.00
C 234.98 122.51 236.63 123.30 238.00 124.00 Z"/>
</g>
<g fill="#8AC6CD" fill-opacity="0.66" stroke="None">
<path d="
M 331.00 175.00 
C 331.55 175.67 332.73 177.42 333.00 178.00
C 332.92 177.95 336.09 178.40 337.00 179.00
C 338.09 179.72 338.03 180.68 338.00 182.00
C 340.67 182.00 343.33 182.00 346.00 182.00
C 354.54 179.92 355.81 167.53 364.98 165.98 C 374.14 164.42 378.32 156.25 380.67 147.67 C 383.02 139.09 381.53 129.26 374.25 122.75 C 366.96 116.25 356.71 119.58 351.31 127.31 C 345.90 135.03 348.76 146.12 343.75 153.75 C 338.74 161.38 332.11 165.59 331.00 175.00
M 348.00 165.00 
C 345.68 170.01 342.09 175.21 338.00 179.00
C 340.20 173.93 343.78 168.71 348.00 165.00 Z"/>
</g>
<g fill="#FEA437" fill-opacity="0.98" stroke="None">
<path d="
M 141.00 138.00 
C 139.79 143.74 140.45 150.47 137.69 155.69 C 134.94 160.92 133.87 170.46 140.00 172.00
C 144.23 173.06 149.59 172.92 154.00 173.00
C 156.33 173.04 158.67 173.00 161.00 173.00
C 161.50 173.00 162.00 173.00 162.00 173.00
C 163.42 172.52 164.31 171.15 165.00 170.00
C 166.76 167.04 167.19 163.51 167.00 160.00
C 174.81 157.85 193.12 158.00 189.00 146.00
C 188.37 144.17 186.82 143.58 187.00 141.00
C 185.24 142.15 180.22 142.21 178.00 143.00
C 174.36 144.29 167.71 146.87 164.00 144.00
C 161.69 142.21 162.30 137.56 162.00 136.00
C 161.15 131.67 158.81 127.60 159.00 123.00
C 156.15 123.63 152.83 122.29 150.00 123.00
C 149.32 124.48 144.42 126.10 144.31 129.31 C 144.19 132.51 141.65 134.93 141.00 138.00 Z"/>
</g>
<g fill="#FCA336" fill-opacity="0.97" stroke="None">
<path d="
M 242.00 125.00 
C 239.80 130.14 241.95 138.35 241.00 144.00 C 240.05 149.65 239.50 156.31 239.00 162.00
C 238.41 168.66 238.11 174.59 237.00 181.00
C 236.01 186.74 235.49 192.66 233.00 198.00
C 235.33 198.00 237.67 198.00 240.00 198.00
C 245.66 198.11 251.34 198.00 257.00 198.00
C 261.00 198.00 265.00 198.00 269.00 198.00
C 268.32 183.40 263.05 169.98 260.00 156.00
C 267.53 158.12 265.43 169.62 272.00 172.00
C 272.72 172.02 274.45 170.59 276.00 171.00
C 275.07 168.69 274.93 163.18 274.00 160.00
C 272.26 154.02 266.72 142.73 262.30 138.70 C 257.89 134.67 251.47 122.02 245.00 123.00
C 245.21 122.71 241.76 125.06 242.00 125.00 Z"/>
</g>
<g fill="#E47721" fill-opacity="0.92" stroke="None">
<path d="
M 223.00 149.00 
C 219.98 152.82 216.04 157.78 213.00 161.00
C 213.00 160.99 214.82 163.85 215.00 164.00
C 218.20 162.66 225.28 161.54 229.00 158.00
C 229.50 153.23 234.63 148.55 234.98 142.98 C 235.32 137.41 239.63 130.95 239.00 125.00
C 238.68 125.03 238.27 124.14 238.00 124.00
C 234.58 126.26 234.28 133.92 231.25 137.25 C 228.23 140.59 225.87 145.36 223.00 149.00 Z"/>
</g>
<g fill="#171E32" fill-opacity="1.00" stroke="None">
<path d="
M 239.00 125.00 
C 239.63 130.95 235.32 137.41 234.98 142.98 C 234.63 148.55 229.50 153.23 229.00 158.00
C 228.79 160.00 229.93 161.09 230.00 163.00
C 230.71 162.14 232.02 162.15 233.00 162.00
C 234.50 161.77 237.73 162.77 239.00 162.00
C 239.50 156.31 240.05 149.65 241.00 144.00 C 241.95 138.35 239.80 130.14 242.00 125.00
C 242.70 124.83 238.74 125.02 239.00 125.00 Z"/>
</g>
<g fill="#9C7659" fill-opacity="0.67" stroke="None">
<path d="
M 175.00 131.00 
C 173.57 134.11 175.55 135.13 178.00 135.00
C 180.32 135.33 182.06 133.91 184.00 133.00
C 181.66 130.25 182.78 128.38 184.00 125.00
C 180.04 124.75 178.05 129.01 175.00 131.00 Z"/>
</g>
<g fill="#EA7C1D" fill-opacity="0.85" stroke="None">
<path d="
M 162.00 136.00 
C 162.30 137.56 161.69 142.21 164.00 144.00
C 165.94 144.85 169.86 142.19 172.00 142.00
C 174.67 140.56 175.82 136.61 178.00 135.00
C 175.55 135.13 173.57 134.11 175.00 131.00
C 172.01 132.95 164.06 133.55 162.00 136.00 Z"/>
</g>
<g fill="#5B949D" fill-opacity="0.44" stroke="None">
<path d="
M 44.00 172.00 
C 41.05 168.87 43.20 161.66 45.00 159.00
C 44.80 158.60 45.20 157.40 45.00 157.00
C 39.05 148.46 33.02 136.30 23.00 132.00
C 22.45 140.87 26.60 148.90 29.23 156.77 C 31.86 164.64 39.21 166.97 44.00 172.00 Z"/>
</g>
<g fill="#56929E" fill-opacity="0.65" stroke="None">
<path d="
M 295.00 135.00 
C 293.14 144.72 291.33 157.60 299.00 166.00
C 299.74 166.36 300.20 166.77 301.00 167.00
C 304.63 168.05 308.38 168.74 312.00 170.00
C 309.58 167.58 308.34 161.09 307.00 158.00
C 309.92 161.97 312.48 166.60 315.00 171.00
C 316.49 171.43 318.87 172.76 320.00 173.00
C 320.06 172.76 320.92 172.35 321.00 172.00
C 322.31 165.81 317.41 162.65 315.68 157.32 C 313.95 151.99 313.37 145.86 313.00 140.00
C 312.73 139.80 312.12 139.26 312.00 139.00
C 309.35 140.23 304.91 143.22 303.00 139.00
C 304.78 137.24 307.54 136.83 309.00 135.00
C 305.20 132.06 298.84 131.41 295.00 135.00 Z"/>
</g>
<g fill="#B1D6D9" fill-opacity="0.73" stroke="None">
<path d="
M 78.00 138.00 
C 73.58 146.86 80.00 160.12 76.69 168.69 C 73.38 177.27 68.24 184.85 67.00 194.00
C 67.43 194.29 68.03 195.55 69.00 195.00
C 68.10 195.52 70.26 192.53 70.00 193.00
C 75.07 183.92 76.04 172.35 81.32 163.32 C 86.61 154.29 88.38 142.69 99.00 139.00
C 93.66 136.68 86.16 138.66 80.00 138.00
C 80.52 137.03 81.24 135.85 82.00 135.00
C 80.77 135.77 79.15 137.39 78.00 138.00 Z"/>
</g>
<g fill="#87AFB7" fill-opacity="0.96" stroke="None">
<path d="
M 312.00 139.00 
C 311.07 136.92 310.92 136.49 309.00 135.00
C 307.54 136.83 304.78 137.24 303.00 139.00
C 304.91 143.22 309.35 140.23 312.00 139.00 Z"/>
</g>
<g fill="#9B795C" fill-opacity="0.74" stroke="None">
<path d="
M 187.00 141.00 
C 186.82 143.58 188.37 144.17 189.00 146.00
C 189.99 144.63 192.58 145.06 194.00 145.00
C 195.38 144.34 200.72 138.35 198.23 136.79 C 195.74 135.23 191.54 139.18 189.00 136.00
C 189.46 137.95 187.12 139.28 187.00 141.00 Z"/>
</g>
<g fill="#F3F3F4" fill-opacity="0.22" stroke="None">
<path d="
M 102.00 138.00 
C 106.31 137.34 112.28 137.36 116.00 137.00
C 112.10 137.00 107.87 136.52 104.00 137.00
C 102.74 137.16 102.82 137.60 102.00 138.00 Z"/>
</g>
<g fill="#F1F1F1" fill-opacity="0.50" stroke="None">
<path d="
M 102.00 138.00 
C 100.71 138.20 100.16 138.60 99.00 139.00
C 88.38 142.69 86.61 154.29 81.32 163.32 C 76.04 172.35 75.07 183.92 70.00 193.00
C 72.29 193.05 75.42 186.80 78.75 182.75 C 82.08 178.71 84.19 171.46 89.25 169.25 C 94.31 167.04 94.43 154.21 100.22 158.78 C 106.02 163.35 93.64 164.68 91.75 168.75 C 89.87 172.83 83.59 177.61 82.25 182.25 C 80.91 186.88 73.59 192.66 73.00 197.00
C 73.50 197.44 73.60 198.59 74.00 199.00
C 78.85 203.95 89.58 203.30 94.78 207.22 C 99.97 211.15 112.34 209.22 116.00 214.00
C 126.16 200.88 145.62 192.02 140.00 172.00
C 133.87 170.46 134.94 160.92 137.69 155.69 C 140.45 150.47 139.79 143.74 141.00 138.00
C 135.82 140.95 121.95 137.00 116.00 137.00
C 112.28 137.36 106.31 137.34 102.00 138.00 Z"/>
</g>
<g fill="#F0F0F0" fill-opacity="0.50" stroke="None">
<path d="
M 70.00 140.00 
C 69.68 140.20 69.26 140.88 69.00 141.00
C 66.76 156.54 63.52 176.39 65.00 192.00
C 65.05 192.50 65.00 193.00 65.00 193.00
C 65.03 193.35 65.65 193.97 66.00 194.00
C 66.50 194.05 67.00 194.00 67.00 194.00
C 68.24 184.85 73.38 177.27 76.69 168.69 C 80.00 160.12 73.58 146.86 78.00 138.00
C 75.40 139.37 72.50 138.45 70.00 140.00 Z"/>
</g>
<g fill="#000000" fill-opacity="0.00" stroke="None">
<path d="
M 321.00 172.00 
C 322.45 172.09 325.59 173.41 327.00 174.00
C 326.88 173.53 327.09 172.48 327.00 172.00
C 325.88 166.29 325.62 159.93 323.00 154.00
C 320.82 149.07 317.37 143.28 313.00 140.00
C 313.37 145.86 313.95 151.99 315.68 157.32 C 317.41 162.65 322.31 165.81 321.00 172.00 Z"/>
</g>
<g fill="#EFF0F1" fill-opacity="0.49" stroke="None">
<path d="
M 61.00 143.00 
C 61.00 143.00 60.84 143.56 61.00 144.00
C 64.37 153.50 62.71 164.90 64.00 175.00
C 66.31 164.32 65.86 152.08 68.00 141.00
C 68.00 141.00 67.50 140.99 67.00 141.00
C 64.99 141.04 62.55 141.63 61.00 143.00 Z"/>
</g>
<g fill="#B0D1D5" fill-opacity="0.71" stroke="None">
<path d="
M 61.00 144.00 
C 60.22 144.49 58.65 143.97 58.00 145.00
C 60.85 146.69 58.92 155.20 59.99 159.01 C 61.07 162.82 59.85 170.53 61.00 175.00 C 62.15 179.47 59.53 186.68 62.00 191.00
C 62.22 191.38 62.00 192.00 62.00 192.00
C 62.47 192.50 64.53 191.50 65.00 192.00
C 63.52 176.39 66.76 156.54 69.00 141.00
C 69.00 141.00 68.50 141.00 68.00 141.00
C 65.86 152.08 66.31 164.32 64.00 175.00
C 62.71 164.90 64.37 153.50 61.00 144.00 Z"/>
</g>
<g fill="#F3ECE7" fill-opacity="0.46" stroke="None">
<path d="
M 164.00 144.00 
C 167.71 146.87 174.36 144.29 178.00 143.00
C 176.87 143.02 174.01 141.82 172.00 142.00
C 169.86 142.19 165.94 144.85 164.00 144.00 Z"/>
</g>
<g fill="#F0F0F0" fill-opacity="0.49" stroke="None">
<path d="
M 45.00 157.00 
C 45.20 157.40 44.80 158.60 45.00 159.00
C 49.37 167.92 52.56 178.14 57.00 187.00
C 57.74 187.74 58.27 189.38 59.00 190.00
C 59.49 190.42 60.37 190.89 61.00 191.00
C 61.48 191.09 62.00 191.00 62.00 191.00
C 59.53 186.68 62.15 179.47 61.00 175.00 C 59.85 170.53 61.07 162.82 59.99 159.01 C 58.92 155.20 60.85 146.69 58.00 145.00
C 55.20 143.34 45.39 154.56 45.00 157.00 Z"/>
</g>
<g fill="#F0F0F0" fill-opacity="0.50" stroke="None">
<path d="
M 189.00 146.00 
C 193.12 158.00 174.81 157.85 167.00 160.00
C 167.19 163.51 166.76 167.04 165.00 170.00
C 165.28 177.93 171.28 187.40 171.98 196.02 C 172.67 204.65 176.70 214.09 179.00 222.00
C 182.99 224.91 195.98 223.56 201.00 223.00 C 206.02 222.44 218.86 226.92 223.00 224.00
C 222.67 221.73 224.00 216.82 224.00 214.00
C 224.00 210.58 224.74 206.69 225.00 204.00
C 225.00 196.88 225.65 188.82 226.00 182.00 C 226.35 175.18 230.23 169.64 230.00 163.00
C 229.93 161.09 228.79 160.00 229.00 158.00
C 225.28 161.54 218.20 162.66 215.00 164.00
C 212.26 165.14 210.73 167.58 209.00 170.00
C 208.55 166.54 204.99 167.71 203.00 166.00
C 206.27 164.06 210.09 163.61 213.00 161.00
C 216.04 157.78 219.98 152.82 223.00 149.00
C 218.90 150.43 212.52 146.71 208.07 146.93 C 203.63 147.15 198.78 144.78 194.00 145.00
C 192.58 145.06 189.99 144.63 189.00 146.00 Z"/>
</g>
<g fill="#8BC1CE" fill-opacity="0.31" stroke="None">
<path d="
M 328.00 155.00 
C 328.18 154.41 329.69 153.51 330.00 153.00
C 330.17 151.24 332.11 147.50 331.00 145.00
C 330.51 145.06 329.17 144.76 329.00 145.00
C 328.45 148.43 327.98 151.37 328.00 155.00 Z"/>
</g>
<g fill="#F1F5F5" fill-opacity="0.36" stroke="None">
<path d="
M 323.00 154.00 
C 325.62 159.93 325.88 166.29 327.00 172.00
C 328.55 168.36 328.00 163.34 328.00 159.00
C 327.69 157.09 325.74 153.87 325.00 152.00
C 324.75 153.17 323.25 153.26 323.00 154.00 Z"/>
</g>
<g fill="#8BC5CD" fill-opacity="0.49" stroke="None">
<path d="
M 328.00 155.00 
C 328.01 156.33 328.00 157.67 328.00 159.00
C 328.00 163.34 328.55 168.36 327.00 172.00
C 327.09 172.48 326.88 173.53 327.00 174.00
C 327.09 174.35 327.65 174.97 328.00 175.00
C 328.50 175.05 329.00 175.00 329.00 175.00
C 329.00 169.94 329.59 164.31 330.00 160.00
C 330.00 157.70 329.78 155.29 330.00 153.00
C 329.69 153.51 328.18 154.41 328.00 155.00 Z"/>
</g>
<g fill="#F0F0F0" fill-opacity="0.50" stroke="None">
<path d="
M 257.00 198.00 
C 259.25 199.63 258.20 206.92 258.99 210.01 C 259.78 213.10 261.06 219.04 262.00 222.00
C 265.02 223.59 273.14 220.57 276.93 220.93 C 280.72 221.29 287.02 219.38 290.98 218.98 C 294.94 218.57 300.39 218.44 304.00 217.00
C 304.87 216.65 306.36 215.59 307.00 215.00
C 313.26 209.26 320.00 205.80 329.00 206.00
C 328.89 201.60 329.52 197.06 328.00 193.00
C 325.81 185.16 319.51 179.22 316.00 172.00
C 316.34 180.57 302.07 173.31 301.00 167.00
C 300.20 166.77 299.74 166.36 299.00 166.00
C 291.38 162.26 282.24 161.57 274.00 160.00
C 274.93 163.18 275.07 168.69 276.00 171.00
C 277.71 175.26 283.13 175.08 285.00 179.00
C 280.51 181.94 275.54 175.34 272.00 181.00
C 272.48 177.87 273.50 175.07 272.00 172.00
C 265.43 169.62 267.53 158.12 260.00 156.00
C 263.05 169.98 268.32 183.40 269.00 198.00
C 265.00 198.00 261.00 198.00 257.00 198.00 Z"/>
</g>
<g fill="#D5E5E8" fill-opacity="0.72" stroke="None">
<path d="
M 70.00 193.00 
C 70.26 192.53 68.10 195.52 69.00 195.00
C 69.27 196.28 72.42 196.49 73.00 197.00
C 73.59 192.66 80.91 186.88 82.25 182.25 C 83.59 177.61 89.87 172.83 91.75 168.75 C 93.64 164.68 106.02 163.35 100.22 158.78 C 94.43 154.21 94.31 167.04 89.25 169.25 C 84.19 171.46 82.08 178.71 78.75 182.75 C 75.42 186.80 72.29 193.05 70.00 193.00 Z"/>
</g>
<g fill="#5D9AA3" fill-opacity="0.27" stroke="None">
<path d="
M 312.00 170.00 
C 313.07 170.37 313.90 170.68 315.00 171.00
C 312.48 166.60 309.92 161.97 307.00 158.00
C 308.34 161.09 309.58 167.58 312.00 170.00 Z"/>
</g>
<g fill="#8FB5BC" fill-opacity="0.73" stroke="None">
<path d="
M 44.00 172.00 
C 45.08 173.14 48.52 172.78 50.00 173.00
C 51.12 177.05 53.23 180.80 54.00 185.00
C 54.61 185.83 56.32 186.32 57.00 187.00
C 52.56 178.14 49.37 167.92 45.00 159.00
C 43.20 161.66 41.05 168.87 44.00 172.00 Z"/>
</g>
<g fill="#8CC7CC" fill-opacity="0.30" stroke="None">
<path d="
M 329.00 175.00 
C 329.00 175.50 329.00 176.00 329.00 176.00
C 329.25 176.25 330.00 176.00 330.00 176.00
C 330.00 175.50 330.00 175.00 330.00 175.00
C 330.00 170.00 330.00 165.00 330.00 160.00
C 329.59 164.31 329.00 169.94 329.00 175.00 Z"/>
</g>
<g fill="#5D3721" fill-opacity="0.98" stroke="None">
<path d="
M 215.00 164.00 
C 214.82 163.85 213.00 160.99 213.00 161.00
C 210.09 163.61 206.27 164.06 203.00 166.00
C 204.99 167.71 208.55 166.54 209.00 170.00
C 210.73 167.58 212.26 165.14 215.00 164.00 Z"/>
</g>
<g fill="#2A0C53" fill-opacity="0.98" stroke="None">
<path d="
M 230.00 163.00 
C 230.23 169.64 226.35 175.18 226.00 182.00 C 225.65 188.82 225.00 196.88 225.00 204.00
C 225.00 207.43 224.26 211.31 224.00 214.00
C 224.00 216.82 222.67 221.73 223.00 224.00
C 222.80 222.64 226.00 224.06 224.99 226.01 C 223.98 227.97 225.21 230.45 226.00 232.00
C 227.68 232.00 230.42 232.54 232.00 232.00
C 232.63 229.90 234.44 226.69 235.00 223.00
C 236.17 215.34 239.80 207.84 240.00 200.00
C 240.01 199.50 240.14 198.05 240.00 198.00
C 237.67 198.00 235.33 198.00 233.00 198.00
C 235.49 192.66 236.01 186.74 237.00 181.00
C 236.51 175.17 231.43 168.79 233.00 162.00
C 232.02 162.15 230.71 162.14 230.00 163.00 Z"/>
</g>
<g fill="#322B7F" fill-opacity="1.00" stroke="None">
<path d="
M 237.00 181.00 
C 238.11 174.59 238.41 168.66 239.00 162.00
C 237.73 162.77 234.50 161.77 233.00 162.00
C 231.43 168.79 236.51 175.17 237.00 181.00 Z"/>
</g>
<g fill="#8FC9D1" fill-opacity="0.23" stroke="None">
<path d="
M 348.00 165.00 
C 343.78 168.71 340.20 173.93 338.00 179.00
C 342.09 175.21 345.68 170.01 348.00 165.00 Z"/>
</g>
<g fill="#79A7B0" fill-opacity="0.82" stroke="None">
<path d="
M 328.00 193.00 
C 327.93 191.73 328.13 188.96 328.00 187.00
C 326.44 182.80 318.62 178.18 320.00 173.00
C 318.87 172.76 316.49 171.43 315.00 171.00
C 313.90 170.68 313.07 170.37 312.00 170.00
C 308.38 168.74 304.63 168.05 301.00 167.00
C 302.07 173.31 316.34 180.57 316.00 172.00
C 319.51 179.22 325.81 185.16 328.00 193.00 Z"/>
</g>
<g fill="#1924BF" fill-opacity="0.96" stroke="None">
<path d="
M 162.00 173.00 
C 157.09 182.67 160.79 195.68 154.00 205.00
C 153.41 209.68 155.47 215.23 156.00 220.00
C 156.39 223.50 156.62 232.74 158.78 235.22 C 160.94 237.70 171.01 235.34 174.00 235.00
C 175.54 234.82 177.73 233.46 180.00 234.00
C 182.06 231.38 179.93 225.18 179.00 222.00
C 176.70 214.09 172.67 204.65 171.98 196.02 C 171.28 187.40 165.28 177.93 165.00 170.00
C 164.31 171.15 163.42 172.52 162.00 173.00 Z"/>
</g>
<g fill="#5D3924" fill-opacity="0.97" stroke="None">
<path d="
M 272.00 172.00 
C 273.50 175.07 272.48 177.87 272.00 181.00
C 275.54 175.34 280.51 181.94 285.00 179.00
C 283.13 175.08 277.71 175.26 276.00 171.00
C 274.45 170.59 272.72 172.02 272.00 172.00 Z"/>
</g>
<g fill="#F0F1F1" fill-opacity="0.42" stroke="None">
<path d="
M 54.00 185.00 
C 53.23 180.80 51.12 177.05 50.00 173.00
C 48.52 172.78 45.08 173.14 44.00 172.00
C 45.48 173.55 46.41 178.05 48.25 179.75 C 50.08 181.45 52.92 183.10 54.00 185.00 Z"/>
</g>
<g fill="#2D47FE" fill-opacity="0.98" stroke="None">
<path d="
M 116.00 214.00 
C 115.76 214.31 116.21 215.61 116.00 216.00
C 117.28 217.65 119.61 219.38 121.00 221.00
C 124.24 224.70 126.69 229.22 131.00 232.00
C 134.12 227.06 139.66 223.59 143.00 219.00
C 146.25 214.54 150.67 209.57 154.00 205.00
C 160.79 195.68 157.09 182.67 162.00 173.00
C 162.00 173.00 161.50 173.00 161.00 173.00
C 158.45 174.89 156.29 173.28 154.00 173.00
C 149.59 172.92 144.23 173.06 140.00 172.00
C 145.62 192.02 126.16 200.88 116.00 214.00 Z"/>
</g>
<g fill="#EFF0F0" fill-opacity="0.48" stroke="None">
<path d="
M 320.00 173.00 
C 318.62 178.18 326.44 182.80 328.00 187.00
C 327.74 183.18 328.83 178.72 328.00 175.00
C 327.65 174.97 327.09 174.35 327.00 174.00
C 325.59 173.41 322.45 172.09 321.00 172.00
C 320.92 172.35 320.06 172.76 320.00 173.00 Z"/>
</g>
<g fill="#A777C0" fill-opacity="1.00" stroke="None">
<path d="
M 161.00 173.00 
C 158.67 173.00 156.33 173.04 154.00 173.00
C 156.29 173.28 158.45 174.89 161.00 173.00 Z"/>
</g>
<g fill="#A4CFD5" fill-opacity="0.80" stroke="None">
<path d="
M 328.00 187.00 
C 328.13 188.96 327.93 191.73 328.00 193.00
C 329.52 197.06 328.89 201.60 329.00 206.00
C 320.00 205.80 313.26 209.26 307.00 215.00
C 311.39 213.38 317.43 213.11 322.07 212.07 C 326.71 211.04 331.86 207.92 336.00 207.00
C 334.38 206.88 333.41 206.81 332.00 206.00
C 329.82 204.75 331.76 199.44 333.00 196.00
C 333.55 190.98 333.24 184.19 337.00 179.00
C 336.09 178.40 332.92 177.95 333.00 178.00
C 335.26 182.88 331.11 187.00 331.00 192.00
C 329.25 191.17 330.34 188.56 330.00 187.00
C 329.39 183.76 329.00 179.88 329.00 176.00
C 329.00 176.00 329.00 175.50 329.00 175.00
C 329.00 175.00 328.50 175.05 328.00 175.00
C 328.83 178.72 327.74 183.18 328.00 187.00 Z"/>
</g>
<g fill="#F2F2F2" fill-opacity="0.49" stroke="None">
<path d="
M 330.00 176.00 
C 330.00 179.64 329.78 183.37 330.00 187.00
C 330.34 188.56 329.25 191.17 331.00 192.00
C 331.11 187.00 335.26 182.88 333.00 178.00
C 332.73 177.42 331.55 175.67 331.00 175.00
C 331.00 175.00 330.25 174.75 330.00 175.00
C 330.00 175.00 330.00 175.50 330.00 176.00 Z"/>
</g>
<g fill="#C3DDDF" fill-opacity="0.66" stroke="None">
<path d="
M 330.00 187.00 
C 329.78 183.37 330.00 179.64 330.00 176.00
C 330.00 176.00 329.25 176.25 329.00 176.00
C 329.00 179.88 329.39 183.76 330.00 187.00 Z"/>
</g>
<g fill="#EBEEEE" fill-opacity="0.51" stroke="None">
<path d="
M 333.00 196.00 
C 336.15 187.25 339.95 186.78 348.00 184.00
C 347.68 183.91 346.40 182.14 346.00 182.00
C 343.33 182.00 340.67 182.00 338.00 182.00
C 338.03 180.68 338.09 179.72 337.00 179.00
C 333.24 184.19 333.55 190.98 333.00 196.00 Z"/>
</g>
<g fill="#7CA8B1" fill-opacity="0.81" stroke="None">
<path d="
M 333.00 196.00 
C 331.76 199.44 329.82 204.75 332.00 206.00
C 336.33 201.54 332.92 185.82 344.00 187.00
C 341.07 191.65 348.25 195.15 351.00 198.00
C 355.11 192.91 353.96 188.93 350.00 184.00
C 349.50 183.98 348.45 183.85 348.00 184.00
C 339.95 186.78 336.15 187.25 333.00 196.00 Z"/>
</g>
<g fill="#57939F" fill-opacity="0.62" stroke="None">
<path d="
M 351.00 198.00 
C 350.76 198.30 350.94 199.51 351.00 200.00
C 351.41 203.42 350.99 208.68 352.00 212.00
C 353.38 213.19 354.07 215.19 356.00 216.00
C 363.68 219.21 367.52 204.29 365.98 198.03 C 364.43 191.76 357.27 184.23 350.00 184.00
C 353.96 188.93 355.11 192.91 351.00 198.00 Z"/>
</g>
<g fill="#5892A0" fill-opacity="0.31" stroke="None">
<path d="
M 60.00 212.00 
C 60.85 212.57 60.67 212.91 62.00 213.00
C 63.45 211.48 62.00 201.31 62.00 199.00
C 61.84 198.26 61.10 197.27 61.00 196.00
C 60.61 194.60 59.75 191.58 59.00 190.00
C 58.27 189.38 57.74 187.74 57.00 187.00
C 56.32 186.32 54.61 185.83 54.00 185.00
C 58.44 192.79 56.02 204.15 60.00 212.00 Z"/>
</g>
<g fill="#EFF0F0" fill-opacity="0.49" stroke="None">
<path d="
M 332.00 206.00 
C 333.41 206.81 334.38 206.88 336.00 207.00
C 337.33 207.10 338.67 206.91 340.00 207.00
C 342.38 206.56 349.59 202.42 351.00 200.00
C 350.94 199.51 350.76 198.30 351.00 198.00
C 348.25 195.15 341.07 191.65 344.00 187.00
C 332.92 185.82 336.33 201.54 332.00 206.00 Z"/>
</g>
<g fill="#000000" fill-opacity="0.00" stroke="None">
<path d="
M 61.00 196.00 
C 60.90 194.71 60.58 192.21 61.00 191.00
C 60.37 190.89 59.49 190.42 59.00 190.00
C 59.75 191.58 60.61 194.60 61.00 196.00 Z"/>
</g>
<g fill="#ABD6DC" fill-opacity="0.05" stroke="None">
<path d="
M 61.00 196.00 
C 61.10 197.27 61.84 198.26 62.00 199.00
C 62.00 196.67 62.00 194.33 62.00 192.00
C 62.00 192.00 62.22 191.38 62.00 191.00
C 62.00 191.00 61.48 191.09 61.00 191.00
C 60.58 192.21 60.90 194.71 61.00 196.00 Z"/>
</g>
<g fill="#8DC6CD" fill-opacity="0.45" stroke="None">
<path d="
M 62.00 199.00 
C 62.00 201.31 63.45 211.48 62.00 213.00
C 62.99 213.07 64.00 212.94 65.00 213.00
C 64.05 206.37 69.71 200.73 69.00 195.00
C 68.03 195.55 67.43 194.29 67.00 194.00
C 67.00 194.00 66.50 194.05 66.00 194.00
C 64.79 197.14 65.88 199.76 65.00 203.00
C 63.46 200.72 63.28 195.21 65.00 193.00
C 65.00 193.00 65.05 192.50 65.00 192.00
C 64.53 191.50 62.47 192.50 62.00 192.00
C 62.00 194.33 62.00 196.67 62.00 199.00 Z"/>
</g>
<g fill="#5B868A" fill-opacity="0.22" stroke="None">
<path d="
M 66.00 194.00 
C 65.65 193.97 65.03 193.35 65.00 193.00
C 63.28 195.21 63.46 200.72 65.00 203.00
C 65.88 199.76 64.79 197.14 66.00 194.00 Z"/>
</g>
<g fill="#C2DEE2" fill-opacity="0.45" stroke="None">
<path d="
M 62.00 213.00 
C 60.67 212.91 60.85 212.57 60.00 212.00
C 60.00 212.00 59.50 212.00 59.00 212.00
C 56.55 213.81 53.56 211.57 52.00 212.00
C 48.02 213.34 49.22 218.87 50.00 222.00
C 50.12 222.48 50.88 223.06 51.00 224.00
C 52.31 234.15 61.44 233.84 68.92 231.92 C 76.41 230.01 76.47 215.45 73.00 213.00
C 70.92 211.90 67.46 214.45 66.00 212.00
C 64.14 208.87 73.43 201.28 74.00 199.00
C 73.60 198.59 73.50 197.44 73.00 197.00
C 72.42 196.49 69.27 196.28 69.00 195.00
C 69.71 200.73 64.05 206.37 65.00 213.00
C 64.00 212.94 62.99 213.07 62.00 213.00 Z"/>
</g>
<g fill="#372D84" fill-opacity="0.96" stroke="None">
<path d="
M 240.00 200.00 
C 243.93 200.35 243.44 205.54 245.32 209.68 C 247.20 213.81 248.61 218.66 250.00 223.00
C 251.37 227.28 252.66 230.72 256.00 233.00
C 257.09 231.40 262.62 231.64 264.00 233.00
C 264.15 229.19 263.10 225.46 262.00 222.00
C 261.06 219.04 259.78 213.10 258.99 210.01 C 258.20 206.92 259.25 199.63 257.00 198.00
C 251.34 198.00 245.66 198.11 240.00 198.00
C 240.14 198.05 240.01 199.50 240.00 200.00 Z"/>
</g>
<g fill="#E8E8EA" fill-opacity="0.51" stroke="None">
<path d="
M 240.00 200.00 
C 239.80 207.84 236.17 215.34 235.00 223.00
C 240.00 223.00 245.00 223.00 250.00 223.00
C 248.61 218.66 247.20 213.81 245.32 209.68 C 243.44 205.54 243.93 200.35 240.00 200.00 Z"/>
</g>
<g fill="#000000" fill-opacity="0.00" stroke="None">
<path d="
M 340.00 207.00 
C 344.13 207.27 348.83 209.26 352.00 212.00
C 350.99 208.68 351.41 203.42 351.00 200.00
C 349.59 202.42 342.38 206.56 340.00 207.00 Z"/>
</g>
<g fill="#F2F2F2" fill-opacity="0.72" stroke="None">
<path d="
M 51.00 224.00 
C 50.88 223.06 50.12 222.48 50.00 222.00
C 48.93 223.28 47.40 218.81 45.00 219.00
C 47.21 213.21 51.29 208.32 54.00 203.00
C 49.72 203.78 47.83 209.06 44.00 211.00
C 43.15 207.57 46.88 203.55 45.00 201.00
C 41.70 203.14 41.82 207.65 40.00 211.00
C 37.12 208.16 34.28 203.13 30.00 202.00
C 30.54 205.25 33.86 207.54 34.00 211.00
C 31.43 210.04 29.58 207.99 27.00 207.00
C 28.39 211.98 34.44 214.47 37.00 219.00
C 21.25 228.90 49.43 241.04 51.00 224.00 Z"/>
</g>
<g fill="#625776" fill-opacity="0.87" stroke="None">
<path d="
M 224.00 214.00 
C 224.26 211.31 225.00 207.43 225.00 204.00
C 224.74 206.69 224.00 210.58 224.00 214.00 Z"/>
</g>
<g fill="#EBECF2" fill-opacity="0.48" stroke="None">
<path d="
M 143.00 219.00 
C 147.41 217.84 151.53 221.22 156.00 220.00
C 155.47 215.23 153.41 209.68 154.00 205.00
C 150.67 209.57 146.25 214.54 143.00 219.00 Z"/>
</g>
<g fill="#8AC6CD" fill-opacity="0.66" stroke="None">
<path d="
M 307.00 215.00 
C 306.36 215.59 304.87 216.65 304.00 217.00
C 300.72 224.44 313.29 229.96 318.93 231.07 C 324.56 232.19 336.82 232.86 342.93 230.93 C 349.04 228.99 358.54 224.36 356.00 216.00
C 354.07 215.19 353.38 213.19 352.00 212.00
C 348.83 209.26 344.13 207.27 340.00 207.00
C 338.67 206.91 337.33 207.10 336.00 207.00
C 331.86 207.92 326.71 211.04 322.07 212.07 C 317.43 213.11 311.39 213.38 307.00 215.00 Z"/>
</g>
<g fill="#AAFFFF" fill-opacity="0.01" stroke="None">
<path d="
M 59.00 212.00 
C 57.03 212.00 53.85 211.38 52.00 212.00
C 53.56 211.57 56.55 213.81 59.00 212.00 Z"/>
</g>
<g fill="#AAFFFF" fill-opacity="0.01" stroke="None">
<path d="
M 73.00 213.00 
C 71.07 211.64 68.61 211.94 66.00 212.00
C 67.46 214.45 70.92 211.90 73.00 213.00 Z"/>
</g>
<g fill="#B5916D" fill-opacity="0.82" stroke="None">
<path d="
M 113.00 219.00 
C 115.68 220.46 113.33 223.29 118.00 222.00
C 118.41 221.89 120.74 220.96 121.00 221.00
C 119.61 219.38 117.28 217.65 116.00 216.00
C 115.95 216.10 113.19 218.89 113.00 219.00 Z"/>
</g>
<g fill="#E6E5E5" fill-opacity="0.76" stroke="None">
<path d="
M 118.00 222.00 
C 113.33 223.29 115.68 220.46 113.00 219.00
C 100.33 219.73 116.12 233.67 121.00 238.00
C 123.57 232.64 117.99 227.53 118.00 222.00 Z"/>
</g>
<g fill="#2D0955" fill-opacity="0.51" stroke="None">
<path d="
M 223.00 224.00 
C 221.89 226.23 222.66 231.66 225.00 232.00
C 225.49 232.07 226.00 232.00 226.00 232.00
C 225.21 230.45 223.98 227.97 224.99 226.01 C 226.00 224.06 222.80 222.64 223.00 224.00 Z"/>
</g>
<g fill="#4E2E1D" fill-opacity="0.89" stroke="None">
<path d="
M 225.00 235.00 
C 225.31 234.98 231.87 235.90 232.00 236.00
C 231.86 235.00 231.71 232.96 232.00 232.00
C 230.42 232.54 227.68 232.00 226.00 232.00
C 226.00 232.00 225.49 232.07 225.00 232.00
C 224.51 232.46 225.38 234.42 225.00 235.00 Z"/>
</g>
<g fill="#553326" fill-opacity="0.88" stroke="None">
<path d="
M 256.00 233.00 
C 256.23 233.16 256.21 234.62 256.00 235.00
C 257.40 236.38 262.89 236.63 264.00 235.00
C 263.81 234.59 263.98 233.50 264.00 233.00
C 262.62 231.64 257.09 231.40 256.00 233.00 Z"/>
</g>
<g fill="#B7906C" fill-opacity="0.86" stroke="None">
<path d="
M 174.00 235.00 
C 173.92 234.96 175.01 236.97 175.00 237.00
C 177.21 239.00 179.78 237.74 180.00 235.00
C 180.00 235.00 179.76 234.31 180.00 234.00
C 177.73 233.46 175.54 234.82 174.00 235.00 Z"/>
</g>
<g fill="#E5E5E5" fill-opacity="0.79" stroke="None">
<path d="
M 175.00 237.00 
C 172.31 237.72 173.08 240.92 173.00 243.00
C 177.02 242.36 192.38 244.40 194.59 241.75 C 196.81 239.09 181.51 235.17 180.00 235.00
C 179.78 237.74 177.21 239.00 175.00 237.00 Z"/>
</g>
<g fill="#1A1947" fill-opacity="0.81" stroke="None">
<path d="
M 232.00 236.00 
C 231.87 235.90 225.31 234.98 225.00 235.00
C 220.76 238.14 211.48 236.89 211.00 243.00
C 218.33 243.00 225.67 243.00 233.00 243.00
C 233.89 240.62 232.23 237.69 232.00 236.00 Z"/>
</g>
<g fill="#191848" fill-opacity="0.81" stroke="None">
<path d="
M 264.00 235.00 
C 262.89 236.63 257.40 236.38 256.00 235.00
C 253.16 239.32 242.92 236.27 244.00 243.00
C 252.00 241.46 270.16 247.87 264.00 235.00 Z"/>
</g>
</svg>